<svg width="513" height="512" viewBox="0 0 513 512" fill="none" xmlns="http://www.w3.org/2000/svg">
<g clip-path="url(#clip0)">
<path d="M191.012 465.042C168.871 465.042 146.082 463.249 123.156 459.656C82.7773 453.32 41.9023 432.199 30.3359 425.874L0 409.288L32.8438 398.488C68.7461 386.683 90.5859 379.359 117.621 367.89C90.5508 354.781 69.6875 331.199 59.6445 300.714L52.0039 277.519L58.2695 278.476C52.3281 272.488 47.6367 266.41 44 260.882C31.0664 241.238 24.2188 217.234 25.6758 196.663L27.1133 176.417L39.2344 181.113C34.1211 171.456 30.4258 161.144 28.2539 150.335C22.9609 123.976 27.3906 95.9721 40.7305 71.4838L51.2891 52.101L65.4102 69.0619C110.07 122.71 166.637 154.535 233.773 163.851C231.031 144.949 233.086 126.706 239.887 110.355C247.805 91.3158 261.891 75.1713 280.609 63.6635C301.398 50.8861 326.609 44.6947 351.598 46.2299C378.109 47.8588 402.18 57.7924 421.297 74.976C430.633 72.5502 437.512 69.9604 446.809 66.4604C452.402 64.3549 458.746 61.9643 466.684 59.2299L495.934 49.1518L476.859 103.628C478.117 103.523 479.414 103.433 480.77 103.374L512.004 101.96L493.543 127.191C492.484 128.636 492.215 129.046 491.84 129.613C490.352 131.855 488.5 134.644 463.16 168.48C456.816 176.953 453.648 187.988 454.238 199.558C456.484 243.527 451.09 283.308 438.195 317.792C426 350.417 407.102 378.41 382.031 400.992C351.008 428.929 311.449 448.058 264.449 457.839C241.395 462.636 216.637 465.042 191.012 465.042V465.042Z" fill="white"/>
</g>
<defs>
<clipPath id="clip0">
<rect width="512.002" height="512" fill="white"/>
</clipPath>
</defs>
</svg>
