<svg width="46" height="45" viewBox="0 0 46 45" fill="none" xmlns="http://www.w3.org/2000/svg">
<path fill-rule="evenodd" clip-rule="evenodd" d="M45.1456 22.5C45.1456 25.5174 44.5497 28.3961 43.4689 31.0255C42.8242 30.7435 42.1165 30.3764 41.3568 29.9822C38.6848 28.5961 35.3681 26.8755 31.8785 27.3443C28.2709 27.829 25.869 28.6648 23.1606 31.4322C22.9932 31.6033 22.8618 31.7494 22.7595 31.8762C22.0959 32.6834 22.059 33.1977 22.0203 33.7365C22.0115 33.8585 22.0027 33.9817 21.9865 34.1098C22.4312 34.0934 23.4014 33.4744 24.6511 32.677C26.8261 31.2892 29.8478 29.3612 32.4205 29.1292C35.7295 29.5472 38.8615 30.868 41.5047 31.9827C41.9471 32.1692 42.3758 32.35 42.7894 32.5198C42.4334 33.232 42.0407 33.9227 41.6137 34.5895C39.6893 33.5951 36.1939 32.4971 33.3621 32.5849C30.5651 33.2258 28.4549 34.1862 26.4283 35.1086C25.6091 35.4815 24.8035 35.8481 23.9718 36.1849C23.0655 35.9873 21.9796 35.5467 20.7591 35.0516L20.7591 35.0516C18.0885 33.9682 14.7736 32.6234 11.2859 32.9899C8.90688 33.2399 5.87405 34.5509 4.08588 35.414C2.37004 32.978 1.12648 30.1875 0.487801 27.1745C2.50647 26.3233 5.21092 25.3593 7.40371 25.2047C10.7109 25.5314 13.8411 26.5637 16.4829 27.4349L16.483 27.4349L16.483 27.4349C17.8441 27.8838 19.0756 28.2899 20.1348 28.5347C20.4584 28.366 20.7733 28.1993 21.0824 28.0358L21.0832 28.0353L21.0833 28.0353C23.5765 26.7159 25.6907 25.597 28.9382 25.2047C31.0497 24.9497 33.9604 25.6828 36.0382 26.2061C37.6775 26.619 38.7984 26.9013 38.5993 26.4647C38.1479 25.4747 32.8951 23.2821 28.9382 23.4047C26.1411 24.0456 24.0309 25.0061 22.0043 25.9284L22.0043 25.9285L22.0043 25.9285C21.1851 26.3013 20.3796 26.6679 19.5479 27.0047C18.6416 26.8071 17.5557 26.3666 16.3351 25.8714C13.6646 24.7881 10.3497 23.4433 6.86196 23.8097C4.73249 24.0335 2.0792 25.1073 0.263567 25.9491C0.0900265 24.8247 0 23.6728 0 22.5C0 10.0736 10.1062 0 22.5728 0C35.0394 0 45.1456 10.0736 45.1456 22.5ZM40.4621 35.3863C40.6435 35.432 40.8186 35.4761 40.9862 35.5178C39.7735 37.219 38.3294 38.7449 36.6997 40.05C35.4936 39.2481 34.2867 38.6783 32.6964 38.2345C29.9595 37.4707 27.3035 39.3177 25.1664 40.8039C24.2019 41.4746 23.3431 42.0718 22.6302 42.3224C21.9702 41.8915 21.3311 41.4224 20.681 40.9454C19.0729 39.7652 17.3985 38.5364 15.1791 37.7163C12.9575 37.6053 10.2212 38.9773 8.68385 40.2379C7.24491 39.1169 5.94587 37.8257 4.8172 36.3947C6.84538 35.5339 9.60044 34.5419 11.8276 34.3849C15.1349 34.7116 18.2651 35.7439 20.9069 36.6151C22.268 37.064 23.4995 37.4701 24.5587 37.7149C24.8824 37.5461 25.1973 37.3795 25.5064 37.2159L25.5072 37.2155C28.0004 35.896 30.1146 34.7772 33.3621 34.3849C35.4736 34.1298 38.3843 34.8629 40.4621 35.3863ZM9.93221 41.1439C13.5388 43.5782 17.8892 45 22.5728 45C27.237 45 31.5707 43.59 35.1684 41.1742C34.1918 40.5793 33.1925 40.1247 32.2666 40.0194C29.6423 40.4374 27.1585 41.7582 25.0622 42.8729C23.9821 43.4472 23.005 43.9668 22.1645 44.28C21.9075 44.0639 21.6574 43.8505 21.4119 43.641C19.4335 41.9529 17.7559 40.5213 15.1791 40.0194C13.631 39.7179 11.5415 40.4957 9.93221 41.1439Z" fill="#F9753D"/>
</svg>
