<svg width="30" height="29" viewBox="0 0 30 29" fill="none" xmlns="http://www.w3.org/2000/svg">
<path fill-rule="evenodd" clip-rule="evenodd" d="M29.1984 14.4141C29.1984 16.3471 28.813 18.1912 28.114 19.8757C27.6971 19.695 27.2394 19.4599 26.7481 19.2074C25.02 18.3194 22.8748 17.2171 20.6179 17.5175C18.2847 17.828 16.7312 18.3635 14.9796 20.1363C14.8713 20.2459 14.7863 20.3395 14.7202 20.4207C14.2909 20.9378 14.2671 21.2673 14.242 21.6125C14.2364 21.6906 14.2307 21.7696 14.2202 21.8517C14.5078 21.8411 15.1353 21.4446 15.9435 20.9338C17.3502 20.0447 19.3046 18.8095 20.9685 18.6609C23.1086 18.9287 25.1342 19.7748 26.8438 20.489L26.8439 20.489C27.1299 20.6085 27.4071 20.7243 27.6745 20.833C27.4443 21.2893 27.1902 21.7319 26.914 22.1591C25.6694 21.522 23.4086 20.8185 21.5771 20.8748C19.7681 21.2854 18.4033 21.9006 17.0926 22.4915C16.5627 22.7304 16.0417 22.9653 15.5038 23.181C14.9176 23.0544 14.2153 22.7722 13.4259 22.455C11.6987 21.761 9.55477 20.8995 7.29905 21.1342C5.76047 21.2943 3.79908 22.1341 2.64254 22.6871C1.53284 21.1265 0.728582 19.3389 0.315508 17.4088C1.6211 16.8635 3.37024 16.2459 4.78845 16.1469C6.92743 16.3562 8.95195 17.0175 10.6606 17.5756L10.6606 17.5756C11.5409 17.8632 12.3374 18.1233 13.0224 18.2802C13.2319 18.172 13.4358 18.0651 13.6358 17.9602C15.2484 17.115 16.6157 16.3982 18.7161 16.1469C20.0817 15.9835 21.9642 16.4531 23.3081 16.7884L23.3081 16.7884C24.3684 17.0529 25.0933 17.2338 24.9645 16.9541C24.6726 16.3199 21.2753 14.9152 18.7161 14.9938C16.9071 15.4044 15.5423 16.0196 14.2316 16.6105L14.2316 16.6105C13.7017 16.8494 13.1807 17.0843 12.6428 17.3C12.0567 17.1734 11.3544 16.8912 10.565 16.574L10.565 16.574C8.83775 15.88 6.69378 15.0185 4.43807 15.2532C3.06081 15.3965 1.34476 16.0845 0.170478 16.6238C0.0582301 15.9034 0 15.1655 0 14.4141C0 6.45341 6.53629 0 14.5992 0C22.6621 0 29.1984 6.45341 29.1984 14.4141ZM26.1734 22.6705C26.2893 22.6994 26.4011 22.7273 26.5082 22.7537C25.7238 23.8436 24.7898 24.8211 23.7358 25.6572C22.9557 25.1434 22.1751 24.7784 21.1465 24.4941C19.3764 24.0048 17.6586 25.188 16.2764 26.1401C15.6526 26.5698 15.0972 26.9523 14.6361 27.1129C14.2093 26.8369 13.7959 26.5363 13.3755 26.2307C12.3354 25.4747 11.2525 24.6875 9.81701 24.1621C8.38027 24.091 6.61063 24.9699 5.61629 25.7774C4.68565 25.0593 3.8455 24.2321 3.11553 23.3153C4.42726 22.7639 6.20903 22.1285 7.64943 22.0279C9.78841 22.2372 11.8129 22.8985 13.5216 23.4566C14.4019 23.7442 15.1983 24.0043 15.8834 24.1612C16.0922 24.0533 16.2954 23.9468 16.4949 23.8423L16.4964 23.8415L16.4968 23.8412C18.1093 22.996 19.4767 22.2792 21.5771 22.0279C22.9427 21.8645 24.8252 22.3341 26.1691 22.6694L26.1693 22.6695L26.1734 22.6705ZM6.42373 26.3579C8.75631 27.9173 11.57 28.8282 14.5992 28.8282C17.6157 28.8282 20.4186 27.9249 22.7454 26.3774C22.1138 25.9962 21.4674 25.705 20.8685 25.6375C19.1712 25.9053 17.5648 26.7514 16.209 27.4655C15.5105 27.8335 14.8785 28.1663 14.3349 28.367C14.1687 28.2286 14.0069 28.0918 13.8482 27.9576C12.5686 26.8762 11.4836 25.9591 9.81701 25.6375C8.81583 25.4444 7.46454 25.9426 6.42373 26.3579Z" fill="#F9753D"/>
</svg>
