<svg width="264" height="45" viewBox="0 0 264 45" fill="none" xmlns="http://www.w3.org/2000/svg">
<path d="M89.12 30C88.9733 30 88.88 29.9333 88.84 29.8L88.32 28.02C88.2933 27.9667 88.26 27.94 88.22 27.94H83.66C83.62 27.94 83.5867 27.9667 83.56 28.02L83.04 29.8C83 29.9333 82.9067 30 82.76 30H79.7C79.62 30 79.56 29.98 79.52 29.94C79.48 29.8867 79.4733 29.8133 79.5 29.72L83.78 16.2C83.82 16.0667 83.9067 16 84.04 16H87.82C87.9533 16 88.04 16.0667 88.08 16.2L92.38 29.72C92.3933 29.7467 92.4 29.78 92.4 29.82C92.4 29.94 92.3267 30 92.18 30H89.12ZM84.36 25.26C84.3467 25.34 84.3733 25.38 84.44 25.38H87.42C87.5 25.38 87.5267 25.34 87.5 25.26L85.98 20.12C85.9667 20.0667 85.9467 20.0467 85.92 20.06C85.8933 20.06 85.8733 20.08 85.86 20.12L84.36 25.26ZM98.7947 30.16C97.7414 30.16 96.808 29.96 95.9947 29.56C95.1947 29.1467 94.568 28.5667 94.1147 27.82C93.6747 27.0733 93.4547 26.2133 93.4547 25.24V16.24C93.4547 16.1733 93.4747 16.12 93.5147 16.08C93.568 16.0267 93.628 16 93.6947 16H96.5347C96.6014 16 96.6547 16.0267 96.6947 16.08C96.748 16.12 96.7747 16.1733 96.7747 16.24V25.24C96.7747 25.8667 96.9547 26.3733 97.3147 26.76C97.688 27.1333 98.1814 27.32 98.7947 27.32C99.3947 27.32 99.8747 27.1333 100.235 26.76C100.608 26.3733 100.795 25.8667 100.795 25.24V16.24C100.795 16.1733 100.815 16.12 100.855 16.08C100.908 16.0267 100.968 16 101.035 16H103.875C103.941 16 103.995 16.0267 104.035 16.08C104.088 16.12 104.115 16.1733 104.115 16.24V25.24C104.115 26.2133 103.895 27.0733 103.455 27.82C103.015 28.5667 102.388 29.1467 101.575 29.56C100.775 29.96 99.848 30.16 98.7947 30.16ZM111.076 30.16C109.969 30.16 109.002 29.9867 108.176 29.64C107.362 29.28 106.729 28.7733 106.276 28.12C105.836 27.4533 105.616 26.6867 105.616 25.82V25.44C105.616 25.3733 105.636 25.32 105.676 25.28C105.729 25.2267 105.789 25.2 105.856 25.2H108.636C108.702 25.2 108.756 25.2267 108.796 25.28C108.849 25.32 108.876 25.3733 108.876 25.44V25.68C108.876 26.12 109.096 26.5067 109.536 26.84C109.976 27.16 110.569 27.32 111.316 27.32C111.902 27.32 112.336 27.1933 112.616 26.94C112.896 26.6867 113.036 26.3933 113.036 26.06C113.036 25.7933 112.949 25.58 112.776 25.42C112.616 25.2467 112.396 25.1067 112.116 25C111.836 24.88 111.402 24.72 110.816 24.52C110.736 24.48 110.656 24.4533 110.576 24.44C110.496 24.4133 110.422 24.3867 110.356 24.36C109.489 24.08 108.736 23.78 108.096 23.46C107.456 23.1267 106.909 22.6733 106.456 22.1C106.002 21.5133 105.776 20.7933 105.776 19.94C105.776 19.1133 105.989 18.3933 106.416 17.78C106.856 17.1533 107.462 16.6733 108.236 16.34C109.009 16.0067 109.882 15.84 110.856 15.84C111.882 15.84 112.802 16.0267 113.616 16.4C114.442 16.7733 115.089 17.3 115.556 17.98C116.022 18.66 116.256 19.44 116.256 20.32V20.6C116.256 20.6667 116.229 20.7267 116.176 20.78C116.136 20.82 116.082 20.84 116.016 20.84H113.236C113.169 20.84 113.109 20.82 113.056 20.78C113.016 20.7267 112.996 20.6667 112.996 20.6V20.46C112.996 19.9933 112.789 19.58 112.376 19.22C111.962 18.86 111.409 18.68 110.716 18.68C110.196 18.68 109.789 18.7867 109.496 19C109.202 19.2133 109.056 19.5133 109.056 19.9C109.056 20.1933 109.149 20.44 109.336 20.64C109.522 20.8267 109.809 21.0067 110.196 21.18C110.596 21.34 111.202 21.5533 112.016 21.82C112.949 22.14 113.676 22.42 114.196 22.66C114.716 22.9 115.202 23.2933 115.656 23.84C116.122 24.3733 116.356 25.08 116.356 25.96C116.356 26.8267 116.136 27.5733 115.696 28.2C115.256 28.8267 114.636 29.3133 113.836 29.66C113.049 29.9933 112.129 30.16 111.076 30.16ZM128.01 16C128.077 16 128.13 16.0267 128.17 16.08C128.223 16.12 128.25 16.1733 128.25 16.24V18.62C128.25 18.6867 128.223 18.7467 128.17 18.8C128.13 18.84 128.077 18.86 128.01 18.86H124.51C124.443 18.86 124.41 18.8933 124.41 18.96V29.76C124.41 29.8267 124.383 29.8867 124.33 29.94C124.29 29.98 124.237 30 124.17 30H121.33C121.263 30 121.203 29.98 121.15 29.94C121.11 29.8867 121.09 29.8267 121.09 29.76V18.96C121.09 18.8933 121.057 18.86 120.99 18.86H117.61C117.543 18.86 117.483 18.84 117.43 18.8C117.39 18.7467 117.37 18.6867 117.37 18.62V16.24C117.37 16.1733 117.39 16.12 117.43 16.08C117.483 16.0267 117.543 16 117.61 16H128.01ZM137.187 30C137.054 30 136.96 29.94 136.907 29.82L134.547 24.5C134.52 24.4467 134.48 24.42 134.427 24.42H133.107C133.04 24.42 133.007 24.4533 133.007 24.52V29.76C133.007 29.8267 132.98 29.8867 132.927 29.94C132.887 29.98 132.834 30 132.767 30H129.927C129.86 30 129.8 29.98 129.747 29.94C129.707 29.8867 129.687 29.8267 129.687 29.76V16.24C129.687 16.1733 129.707 16.12 129.747 16.08C129.8 16.0267 129.86 16 129.927 16H135.867C136.747 16 137.52 16.18 138.187 16.54C138.854 16.9 139.367 17.4133 139.727 18.08C140.1 18.7333 140.287 19.4867 140.287 20.34C140.287 21.2333 140.067 22.0067 139.627 22.66C139.187 23.3133 138.574 23.7867 137.787 24.08C137.72 24.1067 137.7 24.1533 137.727 24.22L140.367 29.72C140.394 29.7733 140.407 29.8133 140.407 29.84C140.407 29.9467 140.334 30 140.187 30H137.187ZM133.107 18.84C133.04 18.84 133.007 18.8733 133.007 18.94V21.78C133.007 21.8467 133.04 21.88 133.107 21.88H135.327C135.82 21.88 136.22 21.7467 136.527 21.48C136.834 21.2 136.987 20.8333 136.987 20.38C136.987 19.9133 136.834 19.54 136.527 19.26C136.22 18.98 135.82 18.84 135.327 18.84H133.107ZM151.249 30C151.102 30 151.009 29.9333 150.969 29.8L150.449 28.02C150.422 27.9667 150.389 27.94 150.349 27.94H145.789C145.749 27.94 145.716 27.9667 145.689 28.02L145.169 29.8C145.129 29.9333 145.036 30 144.889 30H141.829C141.749 30 141.689 29.98 141.649 29.94C141.609 29.8867 141.602 29.8133 141.629 29.72L145.909 16.2C145.949 16.0667 146.036 16 146.169 16H149.949C150.082 16 150.169 16.0667 150.209 16.2L154.509 29.72C154.522 29.7467 154.529 29.78 154.529 29.82C154.529 29.94 154.456 30 154.309 30H151.249ZM146.489 25.26C146.476 25.34 146.502 25.38 146.569 25.38H149.549C149.629 25.38 149.656 25.34 149.629 25.26L148.109 20.12C148.096 20.0667 148.076 20.0467 148.049 20.06C148.022 20.06 148.002 20.08 147.989 20.12L146.489 25.26ZM156.236 30C156.169 30 156.109 29.98 156.056 29.94C156.016 29.8867 155.996 29.8267 155.996 29.76V16.24C155.996 16.1733 156.016 16.12 156.056 16.08C156.109 16.0267 156.169 16 156.236 16H159.076C159.142 16 159.196 16.0267 159.236 16.08C159.289 16.12 159.316 16.1733 159.316 16.24V27.06C159.316 27.1267 159.349 27.16 159.416 27.16H165.796C165.862 27.16 165.916 27.1867 165.956 27.24C166.009 27.28 166.036 27.3333 166.036 27.4V29.76C166.036 29.8267 166.009 29.8867 165.956 29.94C165.916 29.98 165.862 30 165.796 30H156.236ZM167.7 30C167.634 30 167.574 29.98 167.52 29.94C167.48 29.8867 167.46 29.8267 167.46 29.76V16.24C167.46 16.1733 167.48 16.12 167.52 16.08C167.574 16.0267 167.634 16 167.7 16H170.54C170.607 16 170.66 16.0267 170.7 16.08C170.754 16.12 170.78 16.1733 170.78 16.24V29.76C170.78 29.8267 170.754 29.8867 170.7 29.94C170.66 29.98 170.607 30 170.54 30H167.7ZM181.893 30C181.747 30 181.653 29.9333 181.613 29.8L181.093 28.02C181.067 27.9667 181.033 27.94 180.993 27.94H176.433C176.393 27.94 176.36 27.9667 176.333 28.02L175.813 29.8C175.773 29.9333 175.68 30 175.533 30H172.473C172.393 30 172.333 29.98 172.293 29.94C172.253 29.8867 172.247 29.8133 172.273 29.72L176.553 16.2C176.593 16.0667 176.68 16 176.813 16H180.593C180.727 16 180.813 16.0667 180.853 16.2L185.153 29.72C185.167 29.7467 185.173 29.78 185.173 29.82C185.173 29.94 185.1 30 184.953 30H181.893ZM177.133 25.26C177.12 25.34 177.147 25.38 177.213 25.38H180.193C180.273 25.38 180.3 25.34 180.273 25.26L178.753 20.12C178.74 20.0667 178.72 20.0467 178.693 20.06C178.667 20.06 178.647 20.08 178.633 20.12L177.133 25.26ZM200.764 16C200.831 16 200.884 16.0267 200.924 16.08C200.977 16.12 201.004 16.1733 201.004 16.24V18.62C201.004 18.6867 200.977 18.7467 200.924 18.8C200.884 18.84 200.831 18.86 200.764 18.86H197.264C197.197 18.86 197.164 18.8933 197.164 18.96V29.76C197.164 29.8267 197.137 29.8867 197.084 29.94C197.044 29.98 196.991 30 196.924 30H194.084C194.017 30 193.957 29.98 193.904 29.94C193.864 29.8867 193.844 29.8267 193.844 29.76V18.96C193.844 18.8933 193.811 18.86 193.744 18.86H190.364C190.297 18.86 190.237 18.84 190.184 18.8C190.144 18.7467 190.124 18.6867 190.124 18.62V16.24C190.124 16.1733 190.144 16.12 190.184 16.08C190.237 16.0267 190.297 16 190.364 16H200.764ZM209.941 30C209.808 30 209.714 29.94 209.661 29.82L207.301 24.5C207.274 24.4467 207.234 24.42 207.181 24.42H205.861C205.794 24.42 205.761 24.4533 205.761 24.52V29.76C205.761 29.8267 205.734 29.8867 205.681 29.94C205.641 29.98 205.588 30 205.521 30H202.681C202.614 30 202.554 29.98 202.501 29.94C202.461 29.8867 202.441 29.8267 202.441 29.76V16.24C202.441 16.1733 202.461 16.12 202.501 16.08C202.554 16.0267 202.614 16 202.681 16H208.621C209.501 16 210.274 16.18 210.941 16.54C211.608 16.9 212.121 17.4133 212.481 18.08C212.854 18.7333 213.041 19.4867 213.041 20.34C213.041 21.2333 212.821 22.0067 212.381 22.66C211.941 23.3133 211.328 23.7867 210.541 24.08C210.474 24.1067 210.454 24.1533 210.481 24.22L213.121 29.72C213.148 29.7733 213.161 29.8133 213.161 29.84C213.161 29.9467 213.088 30 212.941 30H209.941ZM205.861 18.84C205.794 18.84 205.761 18.8733 205.761 18.94V21.78C205.761 21.8467 205.794 21.88 205.861 21.88H208.081C208.574 21.88 208.974 21.7467 209.281 21.48C209.588 21.2 209.741 20.8333 209.741 20.38C209.741 19.9133 209.588 19.54 209.281 19.26C208.974 18.98 208.574 18.84 208.081 18.84H205.861ZM224.003 30C223.856 30 223.763 29.9333 223.723 29.8L223.203 28.02C223.176 27.9667 223.143 27.94 223.103 27.94H218.543C218.503 27.94 218.469 27.9667 218.443 28.02L217.923 29.8C217.883 29.9333 217.789 30 217.643 30H214.583C214.503 30 214.443 29.98 214.403 29.94C214.363 29.8867 214.356 29.8133 214.383 29.72L218.663 16.2C218.703 16.0667 218.789 16 218.923 16H222.703C222.836 16 222.923 16.0667 222.963 16.2L227.263 29.72C227.276 29.7467 227.283 29.78 227.283 29.82C227.283 29.94 227.209 30 227.063 30H224.003ZM219.243 25.26C219.229 25.34 219.256 25.38 219.323 25.38H222.303C222.383 25.38 222.409 25.34 222.383 25.26L220.863 20.12C220.849 20.0667 220.829 20.0467 220.803 20.06C220.776 20.06 220.756 20.08 220.743 20.12L219.243 25.26ZM232.394 30C232.26 30 232.174 29.9333 232.134 29.8L228.094 16.28L228.074 16.2C228.074 16.0667 228.147 16 228.294 16H231.354C231.5 16 231.594 16.0667 231.634 16.2L233.934 25.3C233.947 25.34 233.967 25.36 233.994 25.36C234.02 25.36 234.04 25.34 234.054 25.3L236.314 16.2C236.354 16.0667 236.447 16 236.594 16L239.594 16C239.674 16 239.734 16.0267 239.774 16.08C239.814 16.1333 239.82 16.2 239.794 16.28L235.694 29.8C235.654 29.9333 235.567 30 235.434 30H232.394ZM251.131 18.6C251.131 18.6667 251.104 18.7267 251.051 18.78C251.011 18.82 250.958 18.84 250.891 18.84H244.611C244.544 18.84 244.511 18.8733 244.511 18.94V21.4C244.511 21.4667 244.544 21.5 244.611 21.5H248.631C248.698 21.5 248.751 21.5267 248.791 21.58C248.844 21.62 248.871 21.6733 248.871 21.74V24.08C248.871 24.1467 248.844 24.2067 248.791 24.26C248.751 24.3 248.698 24.32 248.631 24.32H244.611C244.544 24.32 244.511 24.3533 244.511 24.42V27.06C244.511 27.1267 244.544 27.16 244.611 27.16H250.891C250.958 27.16 251.011 27.1867 251.051 27.24C251.104 27.28 251.131 27.3333 251.131 27.4V29.76C251.131 29.8267 251.104 29.8867 251.051 29.94C251.011 29.98 250.958 30 250.891 30H241.431C241.364 30 241.304 29.98 241.251 29.94C241.211 29.8867 241.191 29.8267 241.191 29.76V16.24C241.191 16.1733 241.211 16.12 241.251 16.08C241.304 16.0267 241.364 16 241.431 16H250.891C250.958 16 251.011 16.0267 251.051 16.08C251.104 16.12 251.131 16.1733 251.131 16.24V18.6ZM252.974 30C252.907 30 252.847 29.98 252.794 29.94C252.754 29.8867 252.734 29.8267 252.734 29.76V16.24C252.734 16.1733 252.754 16.12 252.794 16.08C252.847 16.0267 252.907 16 252.974 16H255.814C255.881 16 255.934 16.0267 255.974 16.08C256.027 16.12 256.054 16.1733 256.054 16.24V27.06C256.054 27.1267 256.087 27.16 256.154 27.16H262.534C262.601 27.16 262.654 27.1867 262.694 27.24C262.747 27.28 262.774 27.3333 262.774 27.4V29.76C262.774 29.8267 262.747 29.8867 262.694 29.94C262.654 29.98 262.601 30 262.534 30H252.974Z" fill="white"/>
<path d="M62.1577 0V45" stroke="white" stroke-width="2"/>
<path fill-rule="evenodd" clip-rule="evenodd" d="M45.1456 22.5C45.1456 25.5174 44.5497 28.3961 43.4689 31.0255C42.8242 30.7435 42.1165 30.3764 41.3568 29.9822C38.6848 28.5961 35.3681 26.8755 31.8785 27.3443C28.2709 27.829 25.869 28.6648 23.1606 31.4322C22.9932 31.6033 22.8618 31.7494 22.7595 31.8762C22.0959 32.6834 22.059 33.1977 22.0203 33.7365C22.0115 33.8585 22.0027 33.9817 21.9865 34.1098C22.4312 34.0934 23.4014 33.4744 24.6511 32.677C26.8261 31.2892 29.8478 29.3612 32.4205 29.1292C35.7295 29.5472 38.8615 30.868 41.5047 31.9827C41.9471 32.1692 42.3758 32.35 42.7894 32.5198C42.4334 33.232 42.0407 33.9227 41.6137 34.5895C39.6893 33.5951 36.1939 32.4971 33.3621 32.5849C30.5651 33.2258 28.4549 34.1862 26.4283 35.1086C25.6091 35.4815 24.8035 35.8481 23.9718 36.1849C23.0655 35.9873 21.9796 35.5467 20.7591 35.0516L20.7591 35.0516C18.0885 33.9682 14.7736 32.6234 11.2859 32.9899C8.90688 33.2399 5.87405 34.5509 4.08588 35.414C2.37004 32.978 1.12648 30.1875 0.487801 27.1745C2.50647 26.3233 5.21092 25.3593 7.40371 25.2047C10.7109 25.5314 13.8411 26.5637 16.4829 27.4349L16.483 27.4349L16.483 27.4349C17.8441 27.8838 19.0756 28.2899 20.1348 28.5347C20.4584 28.366 20.7733 28.1993 21.0824 28.0358L21.0832 28.0353L21.0833 28.0353C23.5765 26.7159 25.6907 25.597 28.9382 25.2047C31.0497 24.9497 33.9604 25.6828 36.0382 26.2061C37.6775 26.619 38.7984 26.9013 38.5993 26.4647C38.1479 25.4747 32.8951 23.2821 28.9382 23.4047C26.1411 24.0456 24.0309 25.0061 22.0043 25.9284L22.0043 25.9285L22.0043 25.9285C21.1851 26.3013 20.3796 26.6679 19.5479 27.0047C18.6416 26.8071 17.5557 26.3666 16.3351 25.8714C13.6646 24.7881 10.3497 23.4433 6.86196 23.8097C4.73249 24.0335 2.0792 25.1073 0.263567 25.9491C0.0900265 24.8247 0 23.6728 0 22.5C0 10.0736 10.1062 0 22.5728 0C35.0394 0 45.1456 10.0736 45.1456 22.5ZM40.4621 35.3863C40.6435 35.432 40.8186 35.4761 40.9862 35.5178C39.7735 37.219 38.3294 38.7449 36.6997 40.05C35.4936 39.2481 34.2867 38.6783 32.6964 38.2345C29.9595 37.4707 27.3035 39.3177 25.1664 40.8039C24.2019 41.4746 23.3431 42.0718 22.6302 42.3224C21.9702 41.8915 21.3311 41.4224 20.681 40.9454C19.0729 39.7652 17.3985 38.5364 15.1791 37.7163C12.9575 37.6053 10.2212 38.9773 8.68385 40.2379C7.24491 39.1169 5.94587 37.8257 4.8172 36.3947C6.84538 35.5339 9.60044 34.5419 11.8276 34.3849C15.1349 34.7116 18.2651 35.7439 20.9069 36.6151C22.268 37.064 23.4995 37.4701 24.5587 37.7149C24.8824 37.5461 25.1973 37.3795 25.5064 37.2159L25.5072 37.2155C28.0004 35.896 30.1146 34.7772 33.3621 34.3849C35.4736 34.1298 38.3843 34.8629 40.4621 35.3863ZM9.93221 41.1439C13.5388 43.5782 17.8892 45 22.5728 45C27.237 45 31.5707 43.59 35.1684 41.1742C34.1918 40.5793 33.1925 40.1247 32.2666 40.0194C29.6423 40.4374 27.1585 41.7582 25.0622 42.8729C23.9821 43.4472 23.005 43.9668 22.1645 44.28C21.9075 44.0639 21.6574 43.8505 21.4119 43.641C19.4335 41.9529 17.7559 40.5213 15.1791 40.0194C13.631 39.7179 11.5415 40.4957 9.93221 41.1439Z" fill="#F9753D"/>
</svg>
