<svg width="177" height="29" viewBox="0 0 177 29" fill="none" xmlns="http://www.w3.org/2000/svg">
<path d="M52.1412 20.3582C52.0364 20.3582 51.9697 20.3105 51.9412 20.2153L51.5697 18.9439C51.5507 18.9058 51.5269 18.8867 51.4983 18.8867H48.2412C48.2126 18.8867 48.1888 18.9058 48.1697 18.9439L47.7983 20.2153C47.7697 20.3105 47.7031 20.3582 47.5983 20.3582H45.4126C45.3555 20.3582 45.3126 20.3439 45.284 20.3153C45.2555 20.2772 45.2507 20.2248 45.2697 20.1582L48.3269 10.501C48.3555 10.4058 48.4174 10.3582 48.5126 10.3582H51.2126C51.3078 10.3582 51.3697 10.4058 51.3983 10.501L54.4697 20.1582C54.4793 20.1772 54.484 20.201 54.484 20.2296C54.484 20.3153 54.4316 20.3582 54.3269 20.3582H52.1412ZM48.7412 16.9724C48.7316 17.0296 48.7507 17.0582 48.7983 17.0582H50.9269C50.984 17.0582 51.0031 17.0296 50.984 16.9724L49.8983 13.301C49.8888 13.2629 49.8745 13.2486 49.8555 13.2582C49.8364 13.2582 49.8221 13.2724 49.8126 13.301L48.7412 16.9724ZM59.0517 20.4724C58.2993 20.4724 57.6326 20.3296 57.0517 20.0439C56.4802 19.7486 56.0326 19.3343 55.7088 18.801C55.3945 18.2677 55.2374 17.6534 55.2374 16.9582V10.5296C55.2374 10.482 55.2517 10.4439 55.2802 10.4153C55.3183 10.3772 55.3612 10.3582 55.4088 10.3582H57.4374C57.485 10.3582 57.5231 10.3772 57.5517 10.4153C57.5898 10.4439 57.6088 10.482 57.6088 10.5296V16.9582C57.6088 17.4058 57.7374 17.7677 57.9945 18.0439C58.2612 18.3105 58.6136 18.4439 59.0517 18.4439C59.4802 18.4439 59.8231 18.3105 60.0802 18.0439C60.3469 17.7677 60.4802 17.4058 60.4802 16.9582V10.5296C60.4802 10.482 60.4945 10.4439 60.5231 10.4153C60.5612 10.3772 60.604 10.3582 60.6517 10.3582H62.6802C62.7279 10.3582 62.7659 10.3772 62.7945 10.4153C62.8326 10.4439 62.8517 10.482 62.8517 10.5296V16.9582C62.8517 17.6534 62.6945 18.2677 62.3802 18.801C62.0659 19.3343 61.6183 19.7486 61.0374 20.0439C60.4659 20.3296 59.804 20.4724 59.0517 20.4724ZM67.8238 20.4724C67.0333 20.4724 66.3428 20.3486 65.7523 20.101C65.1714 19.8439 64.719 19.482 64.3952 19.0153C64.0809 18.5391 63.9238 17.9915 63.9238 17.3724V17.101C63.9238 17.0534 63.938 17.0153 63.9666 16.9867C64.0047 16.9486 64.0476 16.9296 64.0952 16.9296H66.0809C66.1285 16.9296 66.1666 16.9486 66.1952 16.9867C66.2333 17.0153 66.2523 17.0534 66.2523 17.101V17.2724C66.2523 17.5867 66.4095 17.8629 66.7238 18.101C67.038 18.3296 67.4619 18.4439 67.9952 18.4439C68.4142 18.4439 68.7238 18.3534 68.9238 18.1724C69.1238 17.9915 69.2238 17.782 69.2238 17.5439C69.2238 17.3534 69.1619 17.201 69.038 17.0867C68.9238 16.9629 68.7666 16.8629 68.5666 16.7867C68.3666 16.701 68.0571 16.5867 67.638 16.4439C67.5809 16.4153 67.5238 16.3962 67.4666 16.3867C67.4095 16.3677 67.3571 16.3486 67.3095 16.3296C66.6904 16.1296 66.1523 15.9153 65.6952 15.6867C65.238 15.4486 64.8476 15.1248 64.5238 14.7153C64.1999 14.2962 64.038 13.782 64.038 13.1724C64.038 12.582 64.1904 12.0677 64.4952 11.6296C64.8095 11.182 65.2428 10.8391 65.7952 10.601C66.3476 10.3629 66.9714 10.2439 67.6666 10.2439C68.3999 10.2439 69.0571 10.3772 69.638 10.6439C70.2285 10.9105 70.6904 11.2867 71.0238 11.7724C71.3571 12.2582 71.5238 12.8153 71.5238 13.4439V13.6439C71.5238 13.6915 71.5047 13.7343 71.4666 13.7724C71.438 13.801 71.3999 13.8153 71.3523 13.8153H69.3666C69.319 13.8153 69.2761 13.801 69.238 13.7724C69.2095 13.7343 69.1952 13.6915 69.1952 13.6439V13.5439C69.1952 13.2105 69.0476 12.9153 68.7523 12.6582C68.4571 12.401 68.0619 12.2724 67.5666 12.2724C67.1952 12.2724 66.9047 12.3486 66.6952 12.501C66.4857 12.6534 66.3809 12.8677 66.3809 13.1439C66.3809 13.3534 66.4476 13.5296 66.5809 13.6724C66.7142 13.8058 66.919 13.9343 67.1952 14.0582C67.4809 14.1724 67.9142 14.3248 68.4952 14.5153C69.1619 14.7439 69.6809 14.9439 70.0523 15.1153C70.4238 15.2867 70.7714 15.5677 71.0952 15.9582C71.4285 16.3391 71.5952 16.8439 71.5952 17.4724C71.5952 18.0915 71.438 18.6248 71.1238 19.0724C70.8095 19.5201 70.3666 19.8677 69.7952 20.1153C69.2333 20.3534 68.5761 20.4724 67.8238 20.4724ZM79.9199 10.3582C79.9675 10.3582 80.0056 10.3772 80.0341 10.4153C80.0722 10.4439 80.0913 10.482 80.0913 10.5296V12.2296C80.0913 12.2772 80.0722 12.3201 80.0341 12.3582C80.0056 12.3867 79.9675 12.401 79.9199 12.401H77.4199C77.3722 12.401 77.3484 12.4248 77.3484 12.4724V20.1867C77.3484 20.2343 77.3294 20.2772 77.2913 20.3153C77.2627 20.3439 77.2246 20.3582 77.177 20.3582H75.1484C75.1008 20.3582 75.0579 20.3439 75.0199 20.3153C74.9913 20.2772 74.977 20.2343 74.977 20.1867V12.4724C74.977 12.4248 74.9532 12.401 74.9056 12.401H72.4913C72.4437 12.401 72.4008 12.3867 72.3627 12.3582C72.3341 12.3201 72.3199 12.2772 72.3199 12.2296V10.5296C72.3199 10.482 72.3341 10.4439 72.3627 10.4153C72.4008 10.3772 72.4437 10.3582 72.4913 10.3582H79.9199ZM86.4748 20.3582C86.3795 20.3582 86.3129 20.3153 86.2748 20.2296L84.589 16.4296C84.57 16.3915 84.5414 16.3724 84.5033 16.3724H83.5605C83.5129 16.3724 83.489 16.3962 83.489 16.4439V20.1867C83.489 20.2343 83.47 20.2772 83.4319 20.3153C83.4033 20.3439 83.3652 20.3582 83.3176 20.3582H81.289C81.2414 20.3582 81.1986 20.3439 81.1605 20.3153C81.1319 20.2772 81.1176 20.2343 81.1176 20.1867V10.5296C81.1176 10.482 81.1319 10.4439 81.1605 10.4153C81.1986 10.3772 81.2414 10.3582 81.289 10.3582H85.5319C86.1605 10.3582 86.7129 10.4867 87.189 10.7439C87.6652 11.001 88.0319 11.3677 88.289 11.8439C88.5557 12.3105 88.689 12.8486 88.689 13.4582C88.689 14.0962 88.5319 14.6486 88.2176 15.1153C87.9033 15.582 87.4652 15.9201 86.9033 16.1296C86.8557 16.1486 86.8414 16.182 86.8605 16.2296L88.7462 20.1582C88.7652 20.1962 88.7748 20.2248 88.7748 20.2439C88.7748 20.3201 88.7224 20.3582 88.6176 20.3582H86.4748ZM83.5605 12.3867C83.5129 12.3867 83.489 12.4105 83.489 12.4582V14.4867C83.489 14.5343 83.5129 14.5582 83.5605 14.5582H85.1462C85.4986 14.5582 85.7843 14.4629 86.0033 14.2724C86.2224 14.0724 86.3319 13.8105 86.3319 13.4867C86.3319 13.1534 86.2224 12.8867 86.0033 12.6867C85.7843 12.4867 85.4986 12.3867 85.1462 12.3867H83.5605ZM96.519 20.3582C96.4142 20.3582 96.3475 20.3105 96.319 20.2153L95.9475 18.9439C95.9285 18.9058 95.9047 18.8867 95.8761 18.8867H92.619C92.5904 18.8867 92.5666 18.9058 92.5475 18.9439L92.1761 20.2153C92.1475 20.3105 92.0809 20.3582 91.9761 20.3582H89.7904C89.7332 20.3582 89.6904 20.3439 89.6618 20.3153C89.6332 20.2772 89.6285 20.2248 89.6475 20.1582L92.7047 10.501C92.7332 10.4058 92.7951 10.3582 92.8904 10.3582H95.5904C95.6856 10.3582 95.7475 10.4058 95.7761 10.501L98.8475 20.1582C98.8571 20.1772 98.8618 20.201 98.8618 20.2296C98.8618 20.3153 98.8094 20.3582 98.7047 20.3582H96.519ZM93.119 16.9724C93.1094 17.0296 93.1285 17.0582 93.1761 17.0582H95.3047C95.3618 17.0582 95.3809 17.0296 95.3618 16.9724L94.2761 13.301C94.2666 13.2629 94.2523 13.2486 94.2332 13.2582C94.2142 13.2582 94.1999 13.2724 94.1904 13.301L93.119 16.9724ZM100.081 20.3582C100.033 20.3582 99.9904 20.3439 99.9523 20.3153C99.9238 20.2772 99.9095 20.2343 99.9095 20.1867V10.5296C99.9095 10.482 99.9238 10.4439 99.9523 10.4153C99.9904 10.3772 100.033 10.3582 100.081 10.3582H102.109C102.157 10.3582 102.195 10.3772 102.224 10.4153C102.262 10.4439 102.281 10.482 102.281 10.5296V18.2582C102.281 18.3058 102.305 18.3296 102.352 18.3296H106.909C106.957 18.3296 106.995 18.3486 107.024 18.3867C107.062 18.4153 107.081 18.4534 107.081 18.501V20.1867C107.081 20.2343 107.062 20.2772 107.024 20.3153C106.995 20.3439 106.957 20.3582 106.909 20.3582H100.081ZM108.27 20.3582C108.222 20.3582 108.18 20.3439 108.142 20.3153C108.113 20.2772 108.099 20.2343 108.099 20.1867V10.5296C108.099 10.482 108.113 10.4439 108.142 10.4153C108.18 10.3772 108.222 10.3582 108.27 10.3582H110.299C110.346 10.3582 110.384 10.3772 110.413 10.4153C110.451 10.4439 110.47 10.482 110.47 10.5296V20.1867C110.47 20.2343 110.451 20.2772 110.413 20.3153C110.384 20.3439 110.346 20.3582 110.299 20.3582H108.27ZM118.408 20.3582C118.303 20.3582 118.236 20.3105 118.208 20.2153L117.836 18.9439C117.817 18.9058 117.794 18.8867 117.765 18.8867H114.508C114.479 18.8867 114.456 18.9058 114.436 18.9439L114.065 20.2153C114.036 20.3105 113.97 20.3582 113.865 20.3582H111.679C111.622 20.3582 111.579 20.3439 111.551 20.3153C111.522 20.2772 111.517 20.2248 111.536 20.1582L114.594 10.501C114.622 10.4058 114.684 10.3582 114.779 10.3582H117.479C117.575 10.3582 117.636 10.4058 117.665 10.501L120.736 20.1582C120.746 20.1772 120.751 20.201 120.751 20.2296C120.751 20.3153 120.698 20.3582 120.594 20.3582H118.408ZM115.008 16.9724C114.998 17.0296 115.017 17.0582 115.065 17.0582H117.194C117.251 17.0582 117.27 17.0296 117.251 16.9724L116.165 13.301C116.156 13.2629 116.141 13.2486 116.122 13.2582C116.103 13.2582 116.089 13.2724 116.079 13.301L115.008 16.9724ZM131.887 10.3582C131.935 10.3582 131.973 10.3772 132.001 10.4153C132.039 10.4439 132.058 10.482 132.058 10.5296V12.2296C132.058 12.2772 132.039 12.3201 132.001 12.3582C131.973 12.3867 131.935 12.401 131.887 12.401H129.387C129.339 12.401 129.315 12.4248 129.315 12.4724V20.1867C129.315 20.2343 129.296 20.2772 129.258 20.3153C129.23 20.3439 129.192 20.3582 129.144 20.3582H127.115C127.068 20.3582 127.025 20.3439 126.987 20.3153C126.958 20.2772 126.944 20.2343 126.944 20.1867V12.4724C126.944 12.4248 126.92 12.401 126.873 12.401H124.458C124.411 12.401 124.368 12.3867 124.33 12.3582C124.301 12.3201 124.287 12.2772 124.287 12.2296V10.5296C124.287 10.482 124.301 10.4439 124.33 10.4153C124.368 10.3772 124.411 10.3582 124.458 10.3582L131.887 10.3582ZM138.442 20.3582C138.347 20.3582 138.28 20.3153 138.242 20.2296L136.556 16.4296C136.537 16.3915 136.508 16.3724 136.47 16.3724H135.528C135.48 16.3724 135.456 16.3962 135.456 16.4439V20.1867C135.456 20.2343 135.437 20.2772 135.399 20.3153C135.37 20.3439 135.332 20.3582 135.285 20.3582H133.256C133.208 20.3582 133.166 20.3439 133.128 20.3153C133.099 20.2772 133.085 20.2343 133.085 20.1867V10.5296C133.085 10.482 133.099 10.4439 133.128 10.4153C133.166 10.3772 133.208 10.3582 133.256 10.3582H137.499C138.128 10.3582 138.68 10.4867 139.156 10.7439C139.632 11.001 139.999 11.3677 140.256 11.8439C140.523 12.3105 140.656 12.8486 140.656 13.4582C140.656 14.0962 140.499 14.6486 140.185 15.1153C139.87 15.582 139.432 15.9201 138.87 16.1296C138.823 16.1486 138.808 16.182 138.828 16.2296L140.713 20.1582C140.732 20.1962 140.742 20.2248 140.742 20.2439C140.742 20.3201 140.689 20.3582 140.585 20.3582H138.442ZM135.528 12.3867C135.48 12.3867 135.456 12.4105 135.456 12.4582V14.4867C135.456 14.5343 135.48 14.5582 135.528 14.5582H137.113C137.466 14.5582 137.751 14.4629 137.97 14.2724C138.189 14.0724 138.299 13.8105 138.299 13.4867C138.299 13.1534 138.189 12.8867 137.97 12.6867C137.751 12.4867 137.466 12.3867 137.113 12.3867H135.528ZM148.486 20.3582C148.381 20.3582 148.315 20.3105 148.286 20.2153L147.915 18.9439C147.896 18.9058 147.872 18.8867 147.843 18.8867H144.586C144.557 18.8867 144.534 18.9058 144.515 18.9439L144.143 20.2153C144.115 20.3105 144.048 20.3582 143.943 20.3582H141.757C141.7 20.3582 141.657 20.3439 141.629 20.3153C141.6 20.2772 141.596 20.2248 141.615 20.1582L144.672 10.501C144.7 10.4058 144.762 10.3582 144.857 10.3582H147.557C147.653 10.3582 147.715 10.4058 147.743 10.501L150.815 20.1582C150.824 20.1772 150.829 20.201 150.829 20.2296C150.829 20.3153 150.777 20.3582 150.672 20.3582H148.486ZM145.086 16.9724C145.077 17.0296 145.096 17.0582 145.143 17.0582H147.272C147.329 17.0582 147.348 17.0296 147.329 16.9724L146.243 13.301C146.234 13.2629 146.219 13.2486 146.2 13.2582C146.181 13.2582 146.167 13.2724 146.157 13.301L145.086 16.9724ZM154.48 20.3582C154.384 20.3582 154.322 20.3105 154.294 20.2153L151.408 10.5582L151.394 10.501C151.394 10.4058 151.446 10.3582 151.551 10.3582H153.737C153.841 10.3582 153.908 10.4058 153.937 10.501L155.58 17.001C155.589 17.0296 155.603 17.0439 155.622 17.0439C155.641 17.0439 155.656 17.0296 155.665 17.001L157.28 10.501C157.308 10.4058 157.375 10.3582 157.48 10.3582H159.622C159.68 10.3582 159.722 10.3772 159.751 10.4153C159.78 10.4534 159.784 10.501 159.765 10.5582L156.837 20.2153C156.808 20.3105 156.746 20.3582 156.651 20.3582H154.48ZM167.863 12.2153C167.863 12.2629 167.844 12.3058 167.806 12.3439C167.778 12.3724 167.739 12.3867 167.692 12.3867H163.206C163.159 12.3867 163.135 12.4105 163.135 12.4582V14.2153C163.135 14.2629 163.159 14.2867 163.206 14.2867H166.078C166.125 14.2867 166.163 14.3058 166.192 14.3439C166.23 14.3724 166.249 14.4105 166.249 14.4582V16.1296C166.249 16.1772 166.23 16.2201 166.192 16.2582C166.163 16.2867 166.125 16.301 166.078 16.301H163.206C163.159 16.301 163.135 16.3248 163.135 16.3724V18.2582C163.135 18.3058 163.159 18.3296 163.206 18.3296H167.692C167.739 18.3296 167.778 18.3486 167.806 18.3867C167.844 18.4153 167.863 18.4534 167.863 18.501V20.1867C167.863 20.2343 167.844 20.2772 167.806 20.3153C167.778 20.3439 167.739 20.3582 167.692 20.3582H160.935C160.887 20.3582 160.844 20.3439 160.806 20.3153C160.778 20.2772 160.763 20.2343 160.763 20.1867V10.5296C160.763 10.482 160.778 10.4439 160.806 10.4153C160.844 10.3772 160.887 10.3582 160.935 10.3582H167.692C167.739 10.3582 167.778 10.3772 167.806 10.4153C167.844 10.4439 167.863 10.482 167.863 10.5296V12.2153ZM169.18 20.3582C169.132 20.3582 169.089 20.3439 169.051 20.3153C169.023 20.2772 169.008 20.2343 169.008 20.1867V10.5296C169.008 10.482 169.023 10.4439 169.051 10.4153C169.089 10.3772 169.132 10.3582 169.18 10.3582H171.208C171.256 10.3582 171.294 10.3772 171.323 10.4153C171.361 10.4439 171.38 10.482 171.38 10.5296V18.2582C171.38 18.3058 171.403 18.3296 171.451 18.3296H176.008C176.056 18.3296 176.094 18.3486 176.123 18.3867C176.161 18.4153 176.18 18.4534 176.18 18.501V20.1867C176.18 20.2343 176.161 20.2772 176.123 20.3153C176.094 20.3439 176.056 20.3582 176.008 20.3582H169.18Z" fill="white"/>
<path d="M37.0557 0V28.6115" stroke="white" stroke-width="2"/>
<path fill-rule="evenodd" clip-rule="evenodd" d="M29.1984 14.4141C29.1984 16.3471 28.813 18.1912 28.114 19.8757C27.6971 19.695 27.2394 19.4599 26.7481 19.2074C25.02 18.3194 22.8748 17.2171 20.6179 17.5175C18.2847 17.828 16.7312 18.3635 14.9796 20.1363C14.8713 20.2459 14.7863 20.3395 14.7202 20.4207C14.2909 20.9378 14.2671 21.2673 14.242 21.6125C14.2364 21.6906 14.2307 21.7696 14.2202 21.8517C14.5078 21.8411 15.1353 21.4446 15.9435 20.9338C17.3502 20.0447 19.3046 18.8095 20.9685 18.6609C23.1086 18.9287 25.1342 19.7748 26.8438 20.489L26.8439 20.489C27.1299 20.6085 27.4071 20.7243 27.6745 20.833C27.4443 21.2893 27.1902 21.7319 26.914 22.1591C25.6694 21.522 23.4086 20.8185 21.5771 20.8748C19.7681 21.2854 18.4033 21.9006 17.0926 22.4915C16.5627 22.7304 16.0417 22.9653 15.5038 23.181C14.9176 23.0544 14.2153 22.7722 13.4259 22.455C11.6987 21.761 9.55477 20.8995 7.29905 21.1342C5.76047 21.2943 3.79908 22.1341 2.64254 22.6871C1.53284 21.1265 0.728582 19.3389 0.315508 17.4088C1.6211 16.8635 3.37024 16.2459 4.78845 16.1469C6.92743 16.3562 8.95195 17.0175 10.6606 17.5756L10.6606 17.5756C11.5409 17.8632 12.3374 18.1233 13.0224 18.2802C13.2319 18.172 13.4358 18.0651 13.6358 17.9602C15.2484 17.115 16.6157 16.3982 18.7161 16.1469C20.0817 15.9835 21.9642 16.4531 23.3081 16.7884L23.3081 16.7884C24.3684 17.0529 25.0933 17.2338 24.9645 16.9541C24.6726 16.3199 21.2753 14.9152 18.7161 14.9938C16.9071 15.4044 15.5423 16.0196 14.2316 16.6105L14.2316 16.6105C13.7017 16.8494 13.1807 17.0843 12.6428 17.3C12.0567 17.1734 11.3544 16.8912 10.565 16.574L10.565 16.574C8.83775 15.88 6.69378 15.0185 4.43807 15.2532C3.06081 15.3965 1.34476 16.0845 0.170478 16.6238C0.0582301 15.9034 0 15.1655 0 14.4141C0 6.45341 6.53629 0 14.5992 0C22.6621 0 29.1984 6.45341 29.1984 14.4141ZM26.1734 22.6705C26.2893 22.6994 26.4011 22.7273 26.5082 22.7537C25.7238 23.8436 24.7898 24.8211 23.7358 25.6572C22.9557 25.1434 22.1751 24.7784 21.1465 24.4941C19.3764 24.0048 17.6586 25.188 16.2764 26.1401C15.6526 26.5698 15.0972 26.9523 14.6361 27.1129C14.2093 26.8369 13.7959 26.5363 13.3755 26.2307C12.3354 25.4747 11.2525 24.6875 9.81701 24.1621C8.38027 24.091 6.61063 24.9699 5.61629 25.7774C4.68565 25.0593 3.8455 24.2321 3.11553 23.3153C4.42726 22.7639 6.20903 22.1285 7.64943 22.0279C9.78841 22.2372 11.8129 22.8985 13.5216 23.4566C14.4019 23.7442 15.1983 24.0043 15.8834 24.1612C16.0922 24.0533 16.2954 23.9468 16.4949 23.8423L16.4964 23.8415L16.4968 23.8412C18.1093 22.996 19.4767 22.2792 21.5771 22.0279C22.9427 21.8645 24.8252 22.3341 26.1691 22.6694L26.1693 22.6695L26.1734 22.6705ZM6.42373 26.3579C8.75631 27.9173 11.57 28.8282 14.5992 28.8282C17.6157 28.8282 20.4186 27.9249 22.7454 26.3774C22.1138 25.9962 21.4674 25.705 20.8685 25.6375C19.1712 25.9053 17.5648 26.7514 16.209 27.4655C15.5105 27.8335 14.8785 28.1663 14.3349 28.367C14.1687 28.2286 14.0069 28.0918 13.8482 27.9576C12.5686 26.8762 11.4836 25.9591 9.81701 25.6375C8.81583 25.4444 7.46454 25.9426 6.42373 26.3579Z" fill="#F9753D"/>
</svg>
