<svg width="185" height="24" viewBox="0 0 185 24" fill="none" xmlns="http://www.w3.org/2000/svg">
<path d="M10.12 20C9.97333 20 9.88 19.9333 9.84 19.8L9.32 18.02C9.29333 17.9667 9.26 17.94 9.22 17.94H4.66C4.62 17.94 4.58667 17.9667 4.56 18.02L4.04 19.8C4 19.9333 3.90667 20 3.76 20H0.7C0.62 20 0.56 19.98 0.52 19.94C0.48 19.8867 0.473333 19.8133 0.5 19.72L4.78 6.2C4.82 6.06667 4.90667 6 5.04 6H8.82C8.95333 6 9.04 6.06667 9.08 6.2L13.38 19.72C13.3933 19.7467 13.4 19.78 13.4 19.82C13.4 19.94 13.3267 20 13.18 20H10.12ZM5.36 15.26C5.34667 15.34 5.37333 15.38 5.44 15.38H8.42C8.5 15.38 8.52667 15.34 8.5 15.26L6.98 10.12C6.96667 10.0667 6.94667 10.0467 6.92 10.06C6.89333 10.06 6.87333 10.08 6.86 10.12L5.36 15.26ZM19.7947 20.16C18.7414 20.16 17.808 19.96 16.9947 19.56C16.1947 19.1467 15.568 18.5667 15.1147 17.82C14.6747 17.0733 14.4547 16.2133 14.4547 15.24V6.24C14.4547 6.17333 14.4747 6.12 14.5147 6.08C14.568 6.02667 14.628 6 14.6947 6H17.5347C17.6014 6 17.6547 6.02667 17.6947 6.08C17.748 6.12 17.7747 6.17333 17.7747 6.24V15.24C17.7747 15.8667 17.9547 16.3733 18.3147 16.76C18.688 17.1333 19.1814 17.32 19.7947 17.32C20.3947 17.32 20.8747 17.1333 21.2347 16.76C21.608 16.3733 21.7947 15.8667 21.7947 15.24V6.24C21.7947 6.17333 21.8147 6.12 21.8547 6.08C21.908 6.02667 21.968 6 22.0347 6H24.8747C24.9414 6 24.9947 6.02667 25.0347 6.08C25.088 6.12 25.1147 6.17333 25.1147 6.24V15.24C25.1147 16.2133 24.8947 17.0733 24.4547 17.82C24.0147 18.5667 23.388 19.1467 22.5747 19.56C21.7747 19.96 20.848 20.16 19.7947 20.16ZM32.0756 20.16C30.969 20.16 30.0023 19.9867 29.1756 19.64C28.3623 19.28 27.729 18.7733 27.2756 18.12C26.8356 17.4533 26.6156 16.6867 26.6156 15.82V15.44C26.6156 15.3733 26.6356 15.32 26.6756 15.28C26.729 15.2267 26.789 15.2 26.8556 15.2H29.6356C29.7023 15.2 29.7556 15.2267 29.7956 15.28C29.849 15.32 29.8756 15.3733 29.8756 15.44V15.68C29.8756 16.12 30.0956 16.5067 30.5356 16.84C30.9756 17.16 31.569 17.32 32.3156 17.32C32.9023 17.32 33.3356 17.1933 33.6156 16.94C33.8956 16.6867 34.0356 16.3933 34.0356 16.06C34.0356 15.7933 33.949 15.58 33.7756 15.42C33.6156 15.2467 33.3956 15.1067 33.1156 15C32.8356 14.88 32.4023 14.72 31.8156 14.52C31.7356 14.48 31.6556 14.4533 31.5756 14.44C31.4956 14.4133 31.4223 14.3867 31.3556 14.36C30.489 14.08 29.7356 13.78 29.0956 13.46C28.4556 13.1267 27.909 12.6733 27.4556 12.1C27.0023 11.5133 26.7756 10.7933 26.7756 9.94C26.7756 9.11333 26.989 8.39333 27.4156 7.78C27.8556 7.15333 28.4623 6.67333 29.2356 6.34C30.009 6.00667 30.8823 5.84 31.8556 5.84C32.8823 5.84 33.8023 6.02667 34.6156 6.4C35.4423 6.77333 36.089 7.3 36.5556 7.98C37.0223 8.66 37.2556 9.44 37.2556 10.32V10.6C37.2556 10.6667 37.229 10.7267 37.1756 10.78C37.1356 10.82 37.0823 10.84 37.0156 10.84H34.2356C34.169 10.84 34.109 10.82 34.0556 10.78C34.0156 10.7267 33.9956 10.6667 33.9956 10.6V10.46C33.9956 9.99333 33.789 9.58 33.3756 9.22C32.9623 8.86 32.409 8.68 31.7156 8.68C31.1956 8.68 30.789 8.78667 30.4956 9C30.2023 9.21333 30.0556 9.51333 30.0556 9.9C30.0556 10.1933 30.149 10.44 30.3356 10.64C30.5223 10.8267 30.809 11.0067 31.1956 11.18C31.5956 11.34 32.2023 11.5533 33.0156 11.82C33.949 12.14 34.6756 12.42 35.1956 12.66C35.7156 12.9 36.2023 13.2933 36.6556 13.84C37.1223 14.3733 37.3556 15.08 37.3556 15.96C37.3556 16.8267 37.1356 17.5733 36.6956 18.2C36.2556 18.8267 35.6356 19.3133 34.8356 19.66C34.049 19.9933 33.129 20.16 32.0756 20.16ZM49.0102 6C49.0768 6 49.1302 6.02667 49.1702 6.08C49.2235 6.12 49.2502 6.17333 49.2502 6.24V8.62C49.2502 8.68667 49.2235 8.74667 49.1702 8.8C49.1302 8.84 49.0768 8.86 49.0102 8.86H45.5102C45.4435 8.86 45.4102 8.89333 45.4102 8.96V19.76C45.4102 19.8267 45.3835 19.8867 45.3302 19.94C45.2902 19.98 45.2368 20 45.1702 20H42.3302C42.2635 20 42.2035 19.98 42.1502 19.94C42.1102 19.8867 42.0902 19.8267 42.0902 19.76V8.96C42.0902 8.89333 42.0568 8.86 41.9902 8.86H38.6102C38.5435 8.86 38.4835 8.84 38.4302 8.8C38.3902 8.74667 38.3702 8.68667 38.3702 8.62V6.24C38.3702 6.17333 38.3902 6.12 38.4302 6.08C38.4835 6.02667 38.5435 6 38.6102 6H49.0102ZM58.187 20C58.0537 20 57.9604 19.94 57.907 19.82L55.547 14.5C55.5204 14.4467 55.4804 14.42 55.427 14.42H54.107C54.0404 14.42 54.007 14.4533 54.007 14.52V19.76C54.007 19.8267 53.9804 19.8867 53.927 19.94C53.887 19.98 53.8337 20 53.767 20H50.927C50.8604 20 50.8004 19.98 50.747 19.94C50.707 19.8867 50.687 19.8267 50.687 19.76V6.24C50.687 6.17333 50.707 6.12 50.747 6.08C50.8004 6.02667 50.8604 6 50.927 6H56.867C57.747 6 58.5204 6.18 59.187 6.54C59.8537 6.9 60.367 7.41333 60.727 8.08C61.1004 8.73333 61.287 9.48667 61.287 10.34C61.287 11.2333 61.067 12.0067 60.627 12.66C60.187 13.3133 59.5737 13.7867 58.787 14.08C58.7204 14.1067 58.7004 14.1533 58.727 14.22L61.367 19.72C61.3937 19.7733 61.407 19.8133 61.407 19.84C61.407 19.9467 61.3337 20 61.187 20H58.187ZM54.107 8.84C54.0404 8.84 54.007 8.87333 54.007 8.94V11.78C54.007 11.8467 54.0404 11.88 54.107 11.88H56.327C56.8204 11.88 57.2204 11.7467 57.527 11.48C57.8337 11.2 57.987 10.8333 57.987 10.38C57.987 9.91333 57.8337 9.54 57.527 9.26C57.2204 8.98 56.8204 8.84 56.327 8.84H54.107ZM72.2489 20C72.1022 20 72.0089 19.9333 71.9689 19.8L71.4489 18.02C71.4222 17.9667 71.3889 17.94 71.3489 17.94H66.7889C66.7489 17.94 66.7156 17.9667 66.6889 18.02L66.1689 19.8C66.1289 19.9333 66.0356 20 65.8889 20H62.8289C62.7489 20 62.6889 19.98 62.6489 19.94C62.6089 19.8867 62.6022 19.8133 62.6289 19.72L66.9089 6.2C66.9489 6.06667 67.0356 6 67.1689 6H70.9489C71.0822 6 71.1689 6.06667 71.2089 6.2L75.5089 19.72C75.5222 19.7467 75.5289 19.78 75.5289 19.82C75.5289 19.94 75.4556 20 75.3089 20H72.2489ZM67.4889 15.26C67.4756 15.34 67.5022 15.38 67.5689 15.38H70.5489C70.6289 15.38 70.6556 15.34 70.6289 15.26L69.1089 10.12C69.0956 10.0667 69.0756 10.0467 69.0489 10.06C69.0222 10.06 69.0022 10.08 68.9889 10.12L67.4889 15.26ZM77.2356 20C77.169 20 77.109 19.98 77.0556 19.94C77.0156 19.8867 76.9956 19.8267 76.9956 19.76V6.24C76.9956 6.17333 77.0156 6.12 77.0556 6.08C77.109 6.02667 77.169 6 77.2356 6H80.0756C80.1423 6 80.1956 6.02667 80.2356 6.08C80.289 6.12 80.3156 6.17333 80.3156 6.24V17.06C80.3156 17.1267 80.349 17.16 80.4156 17.16H86.7956C86.8623 17.16 86.9156 17.1867 86.9556 17.24C87.009 17.28 87.0356 17.3333 87.0356 17.4V19.76C87.0356 19.8267 87.009 19.8867 86.9556 19.94C86.9156 19.98 86.8623 20 86.7956 20H77.2356ZM88.7005 20C88.6338 20 88.5738 19.98 88.5205 19.94C88.4805 19.8867 88.4605 19.8267 88.4605 19.76V6.24C88.4605 6.17333 88.4805 6.12 88.5205 6.08C88.5738 6.02667 88.6338 6 88.7005 6H91.5405C91.6071 6 91.6605 6.02667 91.7005 6.08C91.7538 6.12 91.7805 6.17333 91.7805 6.24V19.76C91.7805 19.8267 91.7538 19.8867 91.7005 19.94C91.6605 19.98 91.6071 20 91.5405 20H88.7005ZM102.893 20C102.747 20 102.653 19.9333 102.613 19.8L102.093 18.02C102.067 17.9667 102.033 17.94 101.993 17.94H97.4334C97.3934 17.94 97.3601 17.9667 97.3334 18.02L96.8134 19.8C96.7734 19.9333 96.6801 20 96.5334 20H93.4734C93.3934 20 93.3334 19.98 93.2934 19.94C93.2534 19.8867 93.2468 19.8133 93.2734 19.72L97.5534 6.2C97.5934 6.06667 97.6801 6 97.8134 6H101.593C101.727 6 101.813 6.06667 101.853 6.2L106.153 19.72C106.167 19.7467 106.173 19.78 106.173 19.82C106.173 19.94 106.1 20 105.953 20H102.893ZM98.1334 15.26C98.1201 15.34 98.1468 15.38 98.2134 15.38H101.193C101.273 15.38 101.3 15.34 101.273 15.26L99.7534 10.12C99.7401 10.0667 99.7201 10.0467 99.6934 10.06C99.6668 10.06 99.6468 10.08 99.6334 10.12L98.1334 15.26ZM121.764 6C121.831 6 121.884 6.02667 121.924 6.08C121.977 6.12 122.004 6.17333 122.004 6.24V8.62C122.004 8.68667 121.977 8.74667 121.924 8.8C121.884 8.84 121.831 8.86 121.764 8.86H118.264C118.197 8.86 118.164 8.89333 118.164 8.96V19.76C118.164 19.8267 118.137 19.8867 118.084 19.94C118.044 19.98 117.991 20 117.924 20H115.084C115.017 20 114.957 19.98 114.904 19.94C114.864 19.8867 114.844 19.8267 114.844 19.76V8.96C114.844 8.89333 114.811 8.86 114.744 8.86H111.364C111.297 8.86 111.237 8.84 111.184 8.8C111.144 8.74667 111.124 8.68667 111.124 8.62V6.24C111.124 6.17333 111.144 6.12 111.184 6.08C111.237 6.02667 111.297 6 111.364 6H121.764ZM130.941 20C130.808 20 130.714 19.94 130.661 19.82L128.301 14.5C128.274 14.4467 128.234 14.42 128.181 14.42H126.861C126.794 14.42 126.761 14.4533 126.761 14.52V19.76C126.761 19.8267 126.734 19.8867 126.681 19.94C126.641 19.98 126.588 20 126.521 20H123.681C123.614 20 123.554 19.98 123.501 19.94C123.461 19.8867 123.441 19.8267 123.441 19.76V6.24C123.441 6.17333 123.461 6.12 123.501 6.08C123.554 6.02667 123.614 6 123.681 6H129.621C130.501 6 131.274 6.18 131.941 6.54C132.608 6.9 133.121 7.41333 133.481 8.08C133.854 8.73333 134.041 9.48667 134.041 10.34C134.041 11.2333 133.821 12.0067 133.381 12.66C132.941 13.3133 132.328 13.7867 131.541 14.08C131.474 14.1067 131.454 14.1533 131.481 14.22L134.121 19.72C134.148 19.7733 134.161 19.8133 134.161 19.84C134.161 19.9467 134.088 20 133.941 20H130.941ZM126.861 8.84C126.794 8.84 126.761 8.87333 126.761 8.94V11.78C126.761 11.8467 126.794 11.88 126.861 11.88H129.081C129.574 11.88 129.974 11.7467 130.281 11.48C130.588 11.2 130.741 10.8333 130.741 10.38C130.741 9.91333 130.588 9.54 130.281 9.26C129.974 8.98 129.574 8.84 129.081 8.84H126.861ZM145.003 20C144.856 20 144.763 19.9333 144.723 19.8L144.203 18.02C144.176 17.9667 144.143 17.94 144.103 17.94H139.543C139.503 17.94 139.469 17.9667 139.443 18.02L138.923 19.8C138.883 19.9333 138.789 20 138.643 20H135.583C135.503 20 135.443 19.98 135.403 19.94C135.363 19.8867 135.356 19.8133 135.383 19.72L139.663 6.2C139.703 6.06667 139.789 6 139.923 6H143.703C143.836 6 143.923 6.06667 143.963 6.2L148.263 19.72C148.276 19.7467 148.283 19.78 148.283 19.82C148.283 19.94 148.209 20 148.063 20H145.003ZM140.243 15.26C140.229 15.34 140.256 15.38 140.323 15.38H143.303C143.383 15.38 143.409 15.34 143.383 15.26L141.863 10.12C141.849 10.0667 141.829 10.0467 141.803 10.06C141.776 10.06 141.756 10.08 141.743 10.12L140.243 15.26ZM153.394 20C153.26 20 153.174 19.9333 153.134 19.8L149.094 6.28L149.074 6.2C149.074 6.06667 149.147 6 149.294 6H152.354C152.5 6 152.594 6.06667 152.634 6.2L154.934 15.3C154.947 15.34 154.967 15.36 154.994 15.36C155.02 15.36 155.04 15.34 155.054 15.3L157.314 6.2C157.354 6.06667 157.447 6 157.594 6L160.594 6C160.674 6 160.734 6.02667 160.774 6.08C160.814 6.13333 160.82 6.2 160.794 6.28L156.694 19.8C156.654 19.9333 156.567 20 156.434 20H153.394ZM172.131 8.6C172.131 8.66667 172.104 8.72667 172.051 8.78C172.011 8.82 171.958 8.84 171.891 8.84H165.611C165.544 8.84 165.511 8.87333 165.511 8.94V11.4C165.511 11.4667 165.544 11.5 165.611 11.5H169.631C169.698 11.5 169.751 11.5267 169.791 11.58C169.844 11.62 169.871 11.6733 169.871 11.74V14.08C169.871 14.1467 169.844 14.2067 169.791 14.26C169.751 14.3 169.698 14.32 169.631 14.32H165.611C165.544 14.32 165.511 14.3533 165.511 14.42V17.06C165.511 17.1267 165.544 17.16 165.611 17.16H171.891C171.958 17.16 172.011 17.1867 172.051 17.24C172.104 17.28 172.131 17.3333 172.131 17.4V19.76C172.131 19.8267 172.104 19.8867 172.051 19.94C172.011 19.98 171.958 20 171.891 20H162.431C162.364 20 162.304 19.98 162.251 19.94C162.211 19.8867 162.191 19.8267 162.191 19.76V6.24C162.191 6.17333 162.211 6.12 162.251 6.08C162.304 6.02667 162.364 6 162.431 6H171.891C171.958 6 172.011 6.02667 172.051 6.08C172.104 6.12 172.131 6.17333 172.131 6.24V8.6ZM173.974 20C173.907 20 173.847 19.98 173.794 19.94C173.754 19.8867 173.734 19.8267 173.734 19.76V6.24C173.734 6.17333 173.754 6.12 173.794 6.08C173.847 6.02667 173.907 6 173.974 6H176.814C176.881 6 176.934 6.02667 176.974 6.08C177.027 6.12 177.054 6.17333 177.054 6.24V17.06C177.054 17.1267 177.087 17.16 177.154 17.16H183.534C183.601 17.16 183.654 17.1867 183.694 17.24C183.747 17.28 183.774 17.3333 183.774 17.4V19.76C183.774 19.8267 183.747 19.8867 183.694 19.94C183.654 19.98 183.601 20 183.534 20H173.974Z" fill="white"/>
</svg>
