<svg width="80" height="80" viewBox="0 0 80 80" fill="none" xmlns="http://www.w3.org/2000/svg">
<path d="M78.4275 40C78.4275 61.4107 61.2151 78.75 40.004 78.75C18.793 78.75 1.58057 61.4107 1.58057 40C1.58057 18.5893 18.793 1.25 40.004 1.25C61.2151 1.25 78.4275 18.5893 78.4275 40Z" stroke="#03A398" stroke-width="2.5"/>
<path d="M20.5475 63.2076C20.5475 63.2076 19.278 65.4476 20.5475 66.5676C21.8169 67.6876 24.1974 65.9276 24.1974 65.9276L33.8777 57.9276L38.9559 55.2076L42.9232 57.6076L51.1753 65.2876C51.1753 65.2876 54.9842 68.6476 55.9361 66.7276C56.888 64.8076 56.2535 63.0476 56.2535 63.0476L54.1905 57.4476C54.1905 57.4476 51.1753 51.2076 51.8101 48.0076C52.7385 46.1026 56.5706 43.6876 56.5706 43.6876L65.2991 39.6876C65.2991 39.6876 68.6314 37.9276 67.8382 35.6876C67.3618 34.4076 64.7595 34.4076 64.5056 34.4076C64.2517 34.4076 56.7825 34.621 53.0796 34.7276C53.0796 34.7276 49.9457 34.6062 48.4775 33.4476C46.7968 32.1214 46.0971 28.4876 46.0971 28.4876L42.9232 14.7276C42.9232 14.7276 42.6056 12.6476 40.5428 12.4876C38.4801 12.3276 38.1624 14.7276 38.1624 14.7276L35.1472 24.6476C35.1472 24.6476 34.0361 29.1276 31.656 31.5276C29.2758 33.9276 24.8321 33.7676 24.8321 33.7676L15.7866 32.9676C15.7866 32.9676 12.6124 32.6476 12.1366 34.0876C11.6608 35.5276 14.0409 37.4476 14.0409 37.4476L21.8169 42.0876C21.8169 42.0876 25.2649 44.4 26.1017 46.7276C27.0137 49.2645 25.4669 53.6076 25.4669 53.6076C23.9329 56.7543 20.5475 63.2076 20.5475 63.2076Z" fill="#92E1D8" stroke="#03A398" stroke-width="2"/>
<path d="M37.6808 43.9598C37.6808 43.9598 37.5152 44.2474 37.6808 44.3911C37.8463 44.5349 38.1568 44.309 38.1568 44.309L39.4192 43.282L40.0815 42.9328L40.5989 43.2409L41.6751 44.2268C41.6751 44.2268 42.1718 44.6582 42.296 44.4117C42.4201 44.1652 42.3374 43.9393 42.3374 43.9393L42.0683 43.2204C42.0683 43.2204 41.6751 42.4193 41.7579 42.0085C41.879 41.764 42.3787 41.454 42.3787 41.454L43.517 40.9405C43.517 40.9405 43.993 40.5913 43.8482 40.427C43.7033 40.2627 43.4467 40.2627 43.4136 40.2627C43.3804 40.2627 42.4064 40.2901 41.9234 40.3037C41.9234 40.3037 41.5147 40.2882 41.3233 40.1394C41.1041 39.9692 41.0128 39.5027 41.0128 39.5027L40.5989 37.7363C40.5989 37.7363 40.5575 37.4693 40.2885 37.4487C40.0195 37.4282 39.978 37.7363 39.978 37.7363L39.5848 39.0098C39.5848 39.0098 39.4399 39.5849 39.1295 39.893C38.8191 40.2011 38.2396 40.1805 38.2396 40.1805L37.0599 40.0778C37.0599 40.0778 36.6459 40.0367 36.5839 40.2216C36.5218 40.4064 36.8322 40.6529 36.8322 40.6529L37.8463 41.2486C37.8463 41.2486 38.296 41.5454 38.4051 41.8442C38.5241 42.1699 38.3223 42.7274 38.3223 42.7274C38.1223 43.1314 37.6808 43.9598 37.6808 43.9598Z" fill="#03A398"/>
<ellipse cx="33.2427" cy="39.5275" rx="0.793469" ry="0.8" fill="#1CBB9E"/>
<ellipse rx="0.798762" ry="0.794715" transform="matrix(0.433175 -0.90131 0.898478 0.439018 35.603 47.7964)" fill="#1CBB9E"/>
<ellipse rx="0.796826" ry="0.796657" transform="matrix(-0.694925 -0.719082 0.713375 -0.700782 43.0932 47.5389)" fill="#1CBB9E"/>
<ellipse rx="0.79451" ry="0.798967" transform="matrix(-0.915944 0.401305 -0.395707 -0.918377 46.8238 40.3053)" fill="#1CBB9E"/>
<ellipse rx="0.799787" ry="0.793684" transform="matrix(0.179608 0.983738 -0.983206 0.182497 40.0381 34.1723)" fill="#1CBB9E"/>
<ellipse cx="29.4341" cy="38.5676" rx="0.793469" ry="0.8" fill="#1CBB9E"/>
<ellipse rx="0.798762" ry="0.794715" transform="matrix(0.43325 -0.901274 0.898516 0.438942 33.0855 50.8334)" fill="#1CBB9E"/>
<ellipse rx="0.796826" ry="0.796657" transform="matrix(-0.694925 -0.719082 0.713375 -0.700782 45.0688 50.9591)" fill="#1CBB9E"/>
<ellipse rx="0.79451" ry="0.798967" transform="matrix(-0.915944 0.401305 -0.395707 -0.918377 50.6954 39.6554)" fill="#1CBB9E"/>
<ellipse rx="0.799787" ry="0.793684" transform="matrix(0.179617 0.983737 -0.983208 0.182488 40.2852 30.2226)" fill="#1CBB9E"/>
<ellipse cx="26.2603" cy="37.9274" rx="0.793469" ry="0.8" fill="#1CBB9E"/>
<ellipse rx="0.798762" ry="0.794715" transform="matrix(0.43325 -0.901274 0.898516 0.438942 31.1295 53.434)" fill="#1CBB9E"/>
<ellipse rx="0.796826" ry="0.796657" transform="matrix(-0.694945 -0.719063 0.713394 -0.700763 46.829 53.6979)" fill="#1CBB9E"/>
<ellipse rx="0.79451" ry="0.798967" transform="matrix(-0.915976 0.401233 -0.395778 -0.918346 53.8598 38.9673)" fill="#1CBB9E"/>
<ellipse rx="0.799787" ry="0.793684" transform="matrix(0.179608 0.983738 -0.983206 0.182497 40.3345 26.9592)" fill="#1CBB9E"/>
<ellipse cx="22.7686" cy="37.2878" rx="0.793469" ry="0.8" fill="#1CBB9E"/>
<ellipse rx="0.798762" ry="0.794715" transform="matrix(0.433175 -0.90131 0.898478 0.439018 29.0361 56.3226)" fill="#1CBB9E"/>
<ellipse rx="0.796826" ry="0.796657" transform="matrix(-0.694925 -0.719082 0.713375 -0.700782 48.811 56.6656)" fill="#1CBB9E"/>
<ellipse rx="0.79451" ry="0.798967" transform="matrix(-0.915944 0.401305 -0.395707 -0.918377 57.3155 38.1515)" fill="#1CBB9E"/>
<ellipse rx="0.799787" ry="0.793684" transform="matrix(0.179617 0.983737 -0.983208 0.182488 40.3267 23.3813)" fill="#1CBB9E"/>
<path d="M21.0235 36.8075C21.0235 37.1609 20.7393 37.4475 20.3887 37.4475C20.0381 37.4475 19.7539 37.1609 19.7539 36.8075C19.7539 36.454 20.0381 36.1675 20.3887 36.1675C20.7393 36.1675 21.0235 36.454 21.0235 36.8075Z" fill="#1CBB9E"/>
<path d="M27.8461 57.697C28.1616 57.8512 28.2934 58.234 28.1405 58.552C27.9876 58.8701 27.6079 59.003 27.2924 58.8489C26.9769 58.6948 26.8451 58.312 26.998 57.9939C27.1509 57.6758 27.5306 57.5429 27.8461 57.697Z" fill="#1CBB9E"/>
<path d="M49.6883 58.2613C49.9394 58.0147 50.3413 58.0199 50.5859 58.2731C50.8306 58.5263 50.8254 58.9315 50.5743 59.1781C50.3232 59.4248 49.9213 59.4195 49.6766 59.1664C49.432 58.9132 49.4372 58.508 49.6883 58.2613Z" fill="#1CBB9E"/>
<path d="M59.1061 37.8903C58.9664 37.5661 59.1138 37.1891 59.4353 37.0482C59.7569 36.9074 60.1308 37.056 60.2705 37.3802C60.4102 37.7044 60.2628 38.0814 59.9412 38.2222C59.6197 38.3631 59.2458 38.2145 59.1061 37.8903Z" fill="#1CBB9E"/>
<path d="M40.4791 21.5634C40.1343 21.6274 39.8034 21.3975 39.7399 21.0499C39.6764 20.7022 39.9045 20.3686 40.2492 20.3046C40.594 20.2406 40.925 20.4705 40.9885 20.8181C41.052 21.1658 40.8239 21.4994 40.4791 21.5634Z" fill="#1CBB9E"/>
<ellipse cx="18.0083" cy="36.3277" rx="0.476082" ry="0.48" fill="#1CBB9E"/>
<ellipse rx="0.479257" ry="0.476829" transform="matrix(0.433108 -0.901342 0.898446 0.439084 26.1028 60.2234)" fill="#1CBB9E"/>
<ellipse rx="0.478096" ry="0.477994" transform="matrix(-0.694945 -0.719063 0.713394 -0.700763 51.4511 60.7734)" fill="#1CBB9E"/>
<ellipse rx="0.476706" ry="0.47938" transform="matrix(-0.915995 0.401189 -0.395822 -0.918327 62.0611 37.1191)" fill="#1CBB9E"/>
<ellipse rx="0.479872" ry="0.476211" transform="matrix(0.179608 0.983738 -0.983206 0.182498 40.4012 18.4867)" fill="#1CBB9E"/>
</svg>
