<svg width="80" height="80" viewBox="0 0 80 80" fill="none" xmlns="http://www.w3.org/2000/svg">
<path d="M78.4275 40C78.4275 61.4107 61.2151 78.75 40.004 78.75C18.793 78.75 1.58057 61.4107 1.58057 40C1.58057 18.5893 18.793 1.25 40.004 1.25C61.2151 1.25 78.4275 18.5893 78.4275 40Z" stroke="#03A398" stroke-width="2.5"/>
<path d="M32.1522 22.884L33.1092 22.9912H48.0496L48.4218 22.9376L49.1661 22.7768L49.751 22.1871L50.1231 21.4903V20.5789L49.751 19.8821L48.7408 19.1852L47.1457 19.1316L33.5877 19.1852H32.5243L31.7268 19.5068L30.9824 20.3645L30.9293 21.4366L31.3546 22.2407L32.1522 22.884Z" fill="#03A398"/>
<path d="M33.1092 22.9912L30.1849 25.9396L28.1113 28.8879L25.6124 33.2836L22.9008 36.8752L19.9765 40.0916L17.8498 42.2895L16.4142 44.3801L14.766 47.4357L13.4368 51.7242L13.2241 54.7797L13.4368 57.0848L14.2343 59.1218L15.404 60.8372L17.1054 62.3918L19.0727 63.3567L21.0399 63.8928L60.7037 63.7856L62.8305 62.9815L65.0635 61.4805L66.4991 59.8187L67.5625 57.7281L67.7751 55.1014L67.5625 52.4211L66.7118 48.6686L65.5421 45.8275L63.947 43.2008L62.3519 41.1637L58.7896 37.4113L56.8224 35.1598L55.0147 32.4259L52.9411 29.0487L51.6119 26.5292L50.1232 24.7602L48.0496 22.9912M33.1092 22.9912L32.1522 22.884L31.3546 22.2407L30.9293 21.4366L30.9824 20.3645L31.7268 19.5068L32.5243 19.1852H33.5877M33.1092 22.9912H48.0496M33.5877 19.1852L31.8863 15.5936L30.7166 13.5029L30.2381 12.2164L30.5039 11.1979L31.0888 10.5546L31.8863 10.2865H32.5243L33.2687 10.5546L34.3852 10.769H35.5018L36.4588 10.5546L37.8944 9.80409L39.1704 9.21442L40.8186 9L42.52 9.21442C42.8745 9.35737 43.6047 9.67544 43.6897 9.80409C43.7961 9.96491 44.5404 10.5546 44.7 10.5546C44.8276 10.5546 45.5684 10.6975 45.9228 10.769L47.3584 10.5546H48.5813L49.5383 10.9298L50.1763 11.4123L50.6017 12.0556L50.708 12.6452L50.4953 13.3957L47.9964 18.2203L47.1457 19.1316M33.5877 19.1852L47.1457 19.1316M47.1457 19.1316L48.7408 19.1852L49.751 19.8821L50.1232 20.5789V21.4903L49.751 22.1871L49.1661 22.7768L48.4218 22.9376L48.0496 22.9912" stroke="#03A398" stroke-width="2"/>
<path fill-rule="evenodd" clip-rule="evenodd" d="M25.6124 36.1783C25.8738 35.7668 26.0806 35.5673 26.4631 35.267C26.7861 35.0133 26.9945 34.9026 27.3669 34.731C27.8029 34.5301 28.0621 34.4246 28.5366 34.3557C28.8859 34.3051 29.1102 34.3211 29.424 34.3436C29.4795 34.3475 29.5378 34.3517 29.6 34.3557C30.0601 34.3856 30.2912 34.4093 30.7697 34.5165C30.9227 34.585 31.1419 34.731 31.1419 34.731L31.4609 34.999H31.8863C31.8863 34.999 32.0856 35.1567 32.2053 35.267C32.5095 35.5473 32.6766 35.7197 32.8965 36.0711C33.0798 36.3642 33.1729 36.5424 33.2686 36.8752C33.4422 37.4784 33.4602 37.8858 33.2686 38.4834C33.1576 38.9685 32.9693 39.1419 32.6678 39.4195C32.5362 39.5407 32.383 39.6817 32.2053 39.8772L30.238 40.7349H28.0581C27.973 40.7349 27.0656 40.2703 26.6226 40.038C26.1795 39.8057 25.7647 39.4395 25.506 38.8586C25.3603 38.5315 25.3383 38.3035 25.3068 37.9766C25.3026 37.9331 25.2982 37.8877 25.2933 37.8401C25.2856 37.7648 25.277 37.6951 25.2689 37.629C25.2341 37.3479 25.2074 37.1317 25.2933 36.8216C25.3633 36.569 25.4498 36.4335 25.5833 36.224C25.5927 36.2092 25.6024 36.194 25.6124 36.1783ZM48.5812 35.4815L49.0597 35.0526H49.4319L49.7509 34.999L50.0699 34.6238L50.6548 34.4093H52.7284C52.8134 34.4093 53.7563 34.7667 54.2171 34.9454L55.2805 35.8567L55.8121 36.8216V38.269L55.44 39.1803L54.5361 40.0916L53.3664 40.6277L52.5157 40.8421H50.8143L49.4319 40.3596L48.3154 39.5019L47.7837 38.5906L47.6242 37.6257V36.9288L48.0495 36.1783L48.5812 35.4815Z" fill="#1CBB9E"/>
<path d="M31.1419 34.731L31.4609 34.999H31.8863C31.8863 34.999 32.0209 34.981 32.0989 34.9454C32.1935 34.9023 32.2409 34.8612 32.3116 34.7846C32.3174 34.7782 32.323 34.7723 32.3283 34.7666L32.3284 34.7665C32.3976 34.6919 32.4217 34.6659 32.4711 34.5165C32.5152 34.2055 32.5177 34.0509 32.5214 33.8164L32.5214 33.8159C32.5222 33.7677 32.523 33.716 32.5243 33.6588C32.5301 33.3942 32.5286 33.2287 32.5267 33.0212V33.0211C32.5255 32.9 32.5243 32.7645 32.5243 32.5867C32.4178 32.3586 32.3271 32.2074 32.0989 32.1043C31.8716 32.0015 31.6939 32.0151 31.4609 32.1043C31.2271 32.1937 31.1282 32.3284 30.9824 32.5331V34.2485C31.0309 34.441 31.1419 34.731 31.1419 34.731Z" fill="#1CBB9E"/>
<path d="M49.0597 35.0526H49.4319L49.7509 34.999L50.0699 34.6238L50.1231 32.5331L49.6977 32.1043H49.0597L48.5812 32.6403V34.0341L48.6344 34.6774L49.0597 35.0526Z" fill="#1CBB9E"/>
<path d="M31.1419 34.731C31.1419 34.731 30.9227 34.585 30.7697 34.5165C30.2912 34.4093 30.0601 34.3856 29.6 34.3557C29.5378 34.3517 29.4795 34.3475 29.424 34.3436C29.1102 34.3211 28.8859 34.3051 28.5366 34.3557C28.0621 34.4246 27.8029 34.5301 27.3669 34.731C26.9945 34.9026 26.7861 35.0133 26.4631 35.267C26.0806 35.5673 25.8738 35.7668 25.6124 36.1783C25.6024 36.194 25.5927 36.2092 25.5833 36.224C25.4498 36.4335 25.3633 36.569 25.2933 36.8216C25.2074 37.1317 25.2341 37.3479 25.2689 37.629C25.277 37.6951 25.2856 37.7648 25.2933 37.8401C25.2982 37.8877 25.3026 37.9331 25.3068 37.9766C25.3383 38.3035 25.3603 38.5315 25.506 38.8586C25.7647 39.4395 26.1795 39.8057 26.6226 40.038C27.0656 40.2703 27.973 40.7349 28.0581 40.7349M31.1419 34.731L31.4609 34.999H31.8863M31.1419 34.731C31.1419 34.731 31.0309 34.441 30.9824 34.2485M31.8863 34.999C31.8863 34.999 32.0209 34.981 32.0989 34.9454C32.1935 34.9023 32.2409 34.8612 32.3116 34.7846C32.3174 34.7782 32.323 34.7723 32.3283 34.7666L32.3284 34.7665C32.3976 34.6919 32.4217 34.6659 32.4711 34.5165C32.5152 34.2055 32.5177 34.0509 32.5214 33.8164L32.5214 33.8159C32.5222 33.7677 32.523 33.716 32.5243 33.6588C32.5301 33.3942 32.5286 33.2287 32.5267 33.0212V33.0211C32.5255 32.9 32.5243 32.7645 32.5243 32.5867C32.4178 32.3586 32.3271 32.2074 32.0989 32.1043C31.8716 32.0015 31.6939 32.0151 31.4609 32.1043C31.2271 32.1937 31.1282 32.3284 30.9824 32.5331M31.8863 34.999C31.8863 34.999 32.0856 35.1567 32.2053 35.267C32.5095 35.5473 32.6766 35.7197 32.8965 36.0711C33.0798 36.3642 33.1729 36.5424 33.2686 36.8752C33.4422 37.4784 33.4602 37.8858 33.2686 38.4834C33.1576 38.9685 32.9693 39.1419 32.6678 39.4195C32.5362 39.5407 32.383 39.6817 32.2053 39.8772M30.9824 32.5331C30.9824 33.1764 30.9824 33.6052 30.9824 34.2485M30.9824 32.5331V34.2485M28.0581 40.7349C28.1432 40.7349 29.5468 40.7349 30.238 40.7349M28.0581 40.7349H30.238M30.238 40.7349C31.0063 40.3999 31.437 40.2121 32.2053 39.8772M30.238 40.7349L32.2053 39.8772M49.0597 35.0526H49.4319L49.7509 34.999L50.0699 34.6238M49.0597 35.0526L48.6344 34.6774L48.5812 34.0341V32.6403L49.0597 32.1043H49.6977L50.1231 32.5331L50.0699 34.6238M49.0597 35.0526L48.5812 35.4815L48.0495 36.1783L47.6242 36.9288V37.6257L47.7837 38.5906L48.3154 39.5019L49.4319 40.3596L50.8143 40.8421H52.5157L53.3664 40.6277L54.5361 40.0916L55.44 39.1803L55.8121 38.269V36.8216L55.2805 35.8567L54.2171 34.9454C53.7563 34.7667 52.8134 34.4093 52.7284 34.4093M50.0699 34.6238L50.6548 34.4093M50.6548 34.4093C51.3105 34.4093 52.6433 34.4093 52.7284 34.4093M50.6548 34.4093H52.7284" stroke="#1CBB9E"/>
<path d="M37.4697 34.0878V34.5167L37.7356 34.7847L38.2141 35.2672L38.8521 35.696L39.5433 35.964L40.2877 36.0713H41.0852L41.7232 35.964L43.2651 35.0527L43.6373 34.5167V33.9806L43.2119 33.5518H42.5739L42.2017 33.9806L41.0852 34.5167H40.2877L39.3838 34.2486L38.6394 33.659L38.3204 33.5518L37.8951 33.659L37.4697 34.0878Z" fill="#1CBB9E" stroke="#1CBB9E"/>
<path d="M39.7025 46.9532V45.9883C39.7025 45.9883 39.862 45.5059 40.5001 45.5059C41.1381 45.5059 41.2444 45.9883 41.2444 45.9883V47.0604H42.7331C42.7331 47.0604 43.318 47.114 43.318 47.7573C43.318 48.4006 42.7331 48.5078 42.7331 48.5078H41.8293H40.0747C40.0747 48.5078 39.543 48.615 39.543 49.2583C39.543 49.6327 39.7572 49.8562 40.0642 50.0063C40.071 50.008 40.0747 50.0088 40.0747 50.0088C40.0747 50.0088 41.3426 50.1552 41.9888 50.5985C42.3168 50.8234 42.5065 50.9671 42.7331 51.2953C42.9403 51.5954 43.03 51.7954 43.1053 52.153C43.183 52.5216 43.183 52.7494 43.1053 53.1179C43.03 53.4756 42.9328 53.6704 42.7331 53.9756L42.7176 53.9995L42.6997 54.0269C42.5331 54.2827 42.4208 54.4551 42.1483 54.6189C41.8715 54.7854 41.3508 54.8333 41.3508 54.8333V55.8519C41.3508 55.8519 41.2444 56.3879 40.5001 56.3879C39.7557 56.3879 39.7025 55.8519 39.7025 55.8519V54.9406H38.3202C38.3202 54.9406 37.6821 54.8333 37.6821 54.0829C37.6821 53.3324 38.3202 53.3324 38.3202 53.3324H38.6923H40.8191C40.8191 53.3324 41.4039 53.1716 41.4039 52.5819C41.4039 51.9922 40.8722 51.885 40.8722 51.885L40.1811 51.7242C40.1811 51.7242 39.4185 51.5631 39.0113 51.2953C38.6424 51.0527 38.4345 50.8756 38.2138 50.4912C38.0592 50.2219 38.0096 50.0457 37.948 49.7408C37.8609 49.31 37.811 49.0324 37.948 48.615C38.0566 48.2842 38.1522 48.0787 38.3733 47.8109C38.6084 47.5263 38.7874 47.3834 39.1177 47.2213C39.3305 47.1168 39.7025 47.0604 39.7025 47.0604V46.9532Z" fill="#03A398"/>
<path d="M42.7331 48.5078C42.4496 48.5078 41.8718 48.5078 41.8293 48.5078M42.7331 48.5078C42.7331 48.5078 43.318 48.4006 43.318 47.7573C43.318 47.114 42.7331 47.0604 42.7331 47.0604H41.2444V45.9883C41.2444 45.9883 41.1381 45.5059 40.5001 45.5059C39.862 45.5059 39.7025 45.9883 39.7025 45.9883V46.9532V47.0604C39.7025 47.0604 39.3305 47.1168 39.1177 47.2213C38.7874 47.3834 38.6084 47.5263 38.3733 47.8109C38.1522 48.0787 38.0566 48.2842 37.948 48.615C37.811 49.0324 37.8609 49.31 37.948 49.7408C38.0096 50.0457 38.0592 50.2219 38.2138 50.4912C38.4345 50.8756 38.6424 51.0527 39.0113 51.2953C39.4185 51.5631 40.1811 51.7242 40.1811 51.7242L40.8722 51.885C40.8722 51.885 41.4039 51.9922 41.4039 52.5819C41.4039 53.1716 40.8191 53.3324 40.8191 53.3324H38.6923H38.3202C38.3202 53.3324 37.6821 53.3324 37.6821 54.0829C37.6821 54.8333 38.3202 54.9406 38.3202 54.9406H39.7025V55.8519C39.7025 55.8519 39.7557 56.3879 40.5001 56.3879C41.2444 56.3879 41.3508 55.8519 41.3508 55.8519V54.8333C41.3508 54.8333 41.8715 54.7854 42.1483 54.6189C42.4208 54.4551 42.5331 54.2827 42.6997 54.0269M42.7331 48.5078H41.8293M41.8293 48.5078C41.7867 48.5078 40.6418 48.5078 40.0747 48.5078M41.8293 48.5078H40.0747M40.0747 48.5078C40.0747 48.5078 39.543 48.615 39.543 49.2583M41.9888 50.5985C41.3426 50.1552 40.0747 50.0088 40.0747 50.0088C40.0747 50.0088 39.543 49.9016 39.543 49.2583M41.9888 50.5985C42.3168 50.8234 42.5065 50.9671 42.7331 51.2953C42.9403 51.5954 43.03 51.7954 43.1053 52.153C43.183 52.5216 43.183 52.7494 43.1053 53.1179C43.03 53.4756 42.9328 53.6704 42.7331 53.9756M41.9888 50.5985C41.3505 50.1606 39.543 50.3458 39.543 49.2583M42.7331 53.9756C42.7279 53.9837 42.7227 53.9916 42.7176 53.9995M42.7331 53.9756L42.7176 53.9995M42.6997 54.0269C42.7056 54.0179 42.7116 54.0087 42.7176 53.9995M42.6997 54.0269L42.7176 53.9995" stroke="#03A398"/>
</svg>
