<svg width="79" height="79" viewBox="0 0 79 79" fill="none" xmlns="http://www.w3.org/2000/svg">
<path d="M39.3156 77.6384C60.1158 77.6384 76.9603 60.6406 76.9603 39.6942C76.9603 18.7479 60.1158 1.75 39.3156 1.75C18.5154 1.75 1.6709 18.7479 1.6709 39.6942C1.6709 60.6406 18.5154 77.6384 39.3156 77.6384Z" stroke="#03A398" stroke-width="2.5"/>
<path d="M18.1924 68.5907L18.1925 36.1006M18.1925 12C18.1925 12 18.1925 17.755 18.1925 23.5927M39.3731 12V68.5907M59.6461 68.5907V44.9477V12M18.1925 23.5927C18.1925 23.5927 18.1926 23.5927 18.1924 29.6941M18.1925 23.5927C18.1925 23.5927 18.1924 23.2876 18.1924 29.6941M18.1924 29.6941C18.1923 35.7956 18.1925 36.1006 18.1925 36.1006M18.1924 29.6941C18.1924 35.4905 18.1925 36.1006 18.1925 36.1006" stroke="#03A398" stroke-width="2"/>
<path d="M23.046 28.4738C23.046 31.3637 20.7256 33.6853 17.8892 33.6853C15.0528 33.6853 12.7324 31.3637 12.7324 28.4738C12.7324 25.5839 15.0528 23.2622 17.8892 23.2622C20.7256 23.2622 23.046 25.5839 23.046 28.4738Z" fill="#92E1D8" stroke="#03A398" stroke-width="3"/>
<path d="M44.8111 54.5138C44.8111 57.4037 42.4908 59.7254 39.6543 59.7254C36.8179 59.7254 34.4976 57.4037 34.4976 54.5138C34.4976 51.6239 36.8179 49.3022 39.6543 49.3022C42.4908 49.3022 44.8111 51.6239 44.8111 54.5138Z" fill="#92E1D8" stroke="#03A398" stroke-width="3"/>
<path d="M64.2843 37.1901C64.2843 40.08 61.9639 42.4017 59.1275 42.4017C56.291 42.4017 53.9707 40.08 53.9707 37.1901C53.9707 34.3002 56.291 31.9785 59.1275 31.9785C61.9639 31.9785 64.2843 34.3002 64.2843 37.1901Z" fill="#92E1D8" stroke="#03A398" stroke-width="3"/>
</svg>
