<?xml version="1.0" standalone="no"?>
<!DOCTYPE svg PUBLIC "-//W3C//DTD SVG 20010904//EN"
 "http://www.w3.org/TR/2001/REC-SVG-20010904/DTD/svg10.dtd">
<svg version="1.0" xmlns="http://www.w3.org/2000/svg"
 width="736.000000pt" height="736.000000pt" viewBox="0 0 736.000000 736.000000"
 preserveAspectRatio="xMidYMid meet">
<metadata>
Created by potrace 1.11, written by Peter Selinger 2001-2013
</metadata>
<g transform="translate(0.000000,736.000000) scale(0.100000,-0.100000)"
fill="#000000" stroke="none">
<path d="M3378 7275 c-1 -2 -37 -6 -78 -9 -41 -4 -97 -9 -125 -12 -27 -3 -62
-6 -77 -7 -16 -1 -28 -4 -28 -7 0 -3 -10 -5 -22 -6 -34 -2 -102 -12 -150 -24
-24 -6 -56 -13 -72 -15 -43 -7 -298 -76 -319 -87 -10 -5 -28 -11 -39 -13 -56
-11 -399 -152 -410 -169 -4 -6 -8 -8 -8 -4 0 6 -117 -52 -216 -107 -173 -97
-452 -292 -579 -406 -11 -10 -36 -32 -55 -49 -69 -62 -210 -203 -210 -212 0
-4 -7 -8 -15 -8 -8 0 -15 -3 -15 -7 0 -5 -15 -24 -33 -44 -65 -73 -194 -231
-227 -279 -13 -19 -27 -37 -30 -40 -10 -9 -50 -69 -50 -75 0 -3 -9 -15 -20
-27 -11 -12 -20 -28 -20 -35 0 -7 -4 -13 -9 -13 -5 0 -14 -13 -21 -30 -7 -16
-16 -30 -21 -30 -5 0 -9 -4 -9 -9 0 -5 -23 -49 -51 -98 -59 -101 -151 -290
-203 -416 -42 -101 -132 -369 -141 -417 -3 -18 -8 -37 -10 -41 -12 -18 -70
-316 -80 -405 -4 -32 -8 -66 -10 -74 -18 -66 -27 -609 -12 -740 4 -30 9 -77
12 -105 7 -70 15 -118 19 -122 2 -2 32 9 67 26 55 25 94 42 234 101 11 4 34
13 50 19 17 6 44 16 60 22 17 7 35 13 40 15 6 1 48 16 95 32 76 27 242 75 303
88 117 25 168 32 280 39 43 2 82 7 87 10 5 3 11 1 14 -4 3 -5 21 -6 40 -1 19
4 37 6 39 4 2 -2 37 -6 78 -9 83 -6 142 -13 179 -20 14 -2 39 -7 55 -10 58
-10 90 -16 130 -26 22 -6 47 -11 55 -13 47 -8 374 -110 429 -134 20 -9 38 -16
41 -17 5 0 61 -21 95 -35 11 -5 67 -27 125 -50 58 -22 114 -45 125 -50 33 -15
150 -60 170 -66 6 -2 46 -16 90 -33 44 -16 108 -37 143 -46 55 -14 67 -14 95
-1 17 7 79 35 137 61 58 25 110 48 115 49 6 2 42 18 80 35 433 202 749 321
1051 395 109 27 188 27 429 1 17 -2 44 -6 60 -9 17 -4 46 -9 65 -12 19 -3 43
-8 53 -10 10 -3 34 -8 54 -10 20 -3 40 -7 46 -11 6 -3 20 -7 31 -8 60 -7 445
-134 516 -170 14 -7 65 -32 115 -56 155 -73 270 -161 263 -198 -4 -19 -73 -24
-128 -11 -19 5 -47 11 -63 14 -15 3 -35 7 -45 10 -9 3 -28 7 -42 10 -14 3 -52
12 -85 21 -33 9 -71 19 -85 21 -14 3 -33 7 -42 10 -9 3 -25 7 -35 9 -10 2 -63
15 -118 29 -55 13 -117 27 -139 30 -21 4 -42 9 -47 12 -6 3 -24 7 -42 9 -18 2
-41 6 -52 8 -11 3 -54 10 -95 17 -41 6 -86 13 -100 16 -102 17 -328 23 -415
12 -33 -4 -77 -10 -97 -12 -76 -10 -293 -57 -303 -66 -7 -6 -14 -8 -17 -5 -2
3 -38 -7 -79 -21 -41 -14 -81 -27 -89 -29 -22 -5 -192 -73 -212 -85 -10 -6
-25 -10 -33 -10 -8 0 -15 -4 -15 -10 0 -5 -6 -10 -13 -10 -13 0 -217 -101
-447 -223 -97 -51 -129 -63 -143 -56 -9 6 -17 8 -17 5 0 -3 -12 -1 -27 5 -16
6 -39 13 -53 15 -14 3 -97 27 -185 55 -88 28 -164 52 -170 53 -5 1 -14 4 -20
7 -5 3 -44 16 -85 28 -41 13 -84 27 -95 32 -23 10 -182 60 -190 59 -3 0 -22 7
-42 14 -56 22 -315 96 -455 132 -54 13 -66 16 -92 20 -16 3 -40 10 -54 15 -14
5 -27 7 -30 5 -2 -3 -12 -1 -21 3 -9 5 -34 11 -56 15 -22 3 -51 8 -65 11 -14
3 -43 8 -64 11 -22 3 -43 7 -46 9 -3 2 -33 6 -65 10 -33 4 -71 9 -85 12 -52
10 -215 4 -270 -12 -8 -2 -31 -6 -50 -9 -19 -3 -73 -15 -120 -26 -47 -12 -94
-23 -105 -25 -52 -11 -333 -104 -410 -135 -11 -4 -68 -27 -128 -50 -59 -23
-110 -46 -112 -51 -14 -22 91 -377 170 -579 62 -156 235 -503 264 -530 4 -3
12 -15 19 -28 31 -55 38 -67 48 -79 6 -6 24 -32 40 -57 l28 -45 36 19 c48 26
222 103 352 156 222 90 529 183 658 200 25 3 59 9 77 14 44 11 518 2 518 -10
0 -1 14 -3 30 -5 17 -3 53 -9 80 -15 28 -6 63 -12 78 -15 16 -2 72 -16 125
-31 53 -14 102 -27 107 -29 6 -1 17 -5 25 -8 8 -3 40 -13 70 -22 69 -22 365
-132 404 -151 16 -8 34 -14 40 -14 6 0 25 -7 41 -16 64 -33 426 -169 467 -174
4 -1 22 -6 40 -11 34 -10 45 -7 163 46 28 12 52 23 55 23 3 1 48 21 100 45
184 86 225 104 250 112 14 4 30 11 35 15 10 8 348 151 365 154 9 2 134 48 155
57 18 7 136 44 175 54 229 60 237 62 335 60 210 -5 438 -43 695 -116 145 -41
373 -125 438 -161 17 -10 32 -15 32 -12 0 3 10 -2 22 -10 12 -9 26 -16 30 -16
7 0 46 56 74 105 129 232 125 221 87 236 -15 5 -41 16 -58 24 -16 7 -75 32
-130 55 -55 23 -125 52 -155 65 -61 26 -347 138 -425 166 -27 10 -59 21 -70
25 -11 4 -22 8 -25 9 -3 0 -39 12 -80 25 -41 13 -77 25 -80 25 -3 1 -12 4 -20
7 -27 10 -105 31 -120 32 -9 1 -20 5 -25 8 -9 5 -38 12 -90 22 -11 2 -38 9
-60 15 -22 5 -56 13 -75 16 -19 3 -46 8 -60 10 -93 19 -190 24 -245 12 -16 -4
-50 -11 -75 -16 -59 -12 -211 -64 -281 -94 -30 -14 -57 -25 -61 -26 -8 -1
-252 -127 -286 -146 -9 -6 -35 -21 -57 -33 -22 -12 -57 -32 -77 -44 -20 -13
-81 -50 -135 -82 -54 -33 -104 -66 -111 -73 -7 -7 -20 -13 -28 -13 -8 0 -14
-4 -14 -8 0 -5 -12 -15 -27 -23 -16 -8 -30 -16 -33 -19 -3 -3 -21 -15 -40 -27
-19 -11 -77 -46 -128 -77 -100 -60 -202 -107 -215 -99 -9 5 4 168 13 168 1 0
3 7 5 15 7 36 40 98 80 149 34 44 217 225 280 277 33 27 62 52 63 57 2 4 8 7
13 7 8 0 41 23 124 85 10 8 25 15 32 15 7 0 13 4 13 8 0 7 154 87 240 125 98
43 334 112 415 121 12 1 26 6 33 10 7 4 12 5 12 2 0 -2 14 -1 30 4 17 5 53 12
82 15 28 4 60 9 72 11 65 12 156 18 276 17 141 -1 230 -11 370 -43 25 -6 59
-13 75 -16 17 -3 36 -11 43 -16 6 -6 12 -8 12 -4 0 10 244 -80 370 -136 25
-12 91 -43 148 -69 56 -27 105 -48 108 -48 4 0 10 -3 13 -8 7 -10 457 -238
487 -247 20 -6 26 4 66 116 48 130 78 221 84 252 2 10 11 44 20 75 9 31 18 67
21 81 2 14 9 43 15 65 5 22 11 49 13 60 2 11 5 34 9 50 3 17 8 48 10 70 3 22
7 49 10 60 2 11 7 45 10 76 4 31 9 67 11 79 5 28 19 295 18 370 0 83 -12 342
-17 366 -5 27 -17 119 -21 164 -9 100 -80 400 -137 580 -28 87 -116 316 -137
358 -5 9 -39 78 -76 152 -62 125 -197 358 -214 370 -4 3 -10 12 -13 20 -6 15
-165 230 -177 240 -4 3 -34 39 -67 80 -34 41 -117 131 -186 200 -135 135 -147
146 -253 234 -88 73 -89 74 -161 126 -32 24 -60 47 -62 52 -2 4 -7 8 -12 8 -4
0 -48 27 -96 60 -49 33 -94 60 -101 60 -6 0 -13 4 -15 8 -7 18 -378 212 -404
212 -8 0 -14 5 -14 10 0 6 -3 9 -7 8 -5 -1 -66 21 -138 49 -169 66 -405 137
-524 158 -19 3 -37 7 -40 9 -3 2 -22 7 -41 10 -19 3 -44 7 -55 10 -11 2 -42 7
-68 10 -27 4 -58 9 -69 11 -11 2 -45 7 -76 10 -31 3 -77 8 -102 11 -49 7 -556
15 -562 9z"/>
<path d="M5387 1784 c-1 -1 -29 -5 -62 -9 -80 -9 -122 -15 -170 -25 -22 -5
-56 -12 -75 -15 -19 -3 -53 -11 -75 -18 -22 -6 -44 -12 -50 -13 -5 0 -17 -3
-25 -6 -8 -3 -42 -14 -75 -23 -167 -49 -484 -194 -853 -390 l-73 -39 -92 23
c-51 13 -96 26 -102 29 -5 4 -19 8 -29 9 -17 3 -183 56 -361 115 -33 11 -64
21 -70 22 -5 1 -14 4 -20 7 -5 4 -50 19 -100 34 -49 15 -110 34 -135 42 -25 8
-52 16 -60 18 -8 2 -15 4 -15 5 0 1 -7 3 -15 5 -8 2 -46 13 -85 25 -115 35
-469 125 -530 134 -38 7 -48 8 -105 20 -14 3 -43 8 -65 11 -22 3 -53 8 -70 10
-204 31 -295 24 -560 -41 -162 -41 -373 -107 -480 -152 -21 -9 -42 -17 -45
-18 -3 0 -14 -4 -25 -9 -11 -4 -47 -19 -80 -32 -33 -13 -72 -30 -87 -37 l-27
-12 22 -25 c12 -13 42 -49 67 -79 53 -64 148 -167 205 -221 22 -21 70 -66 106
-101 37 -35 75 -70 85 -78 11 -8 42 -33 69 -55 28 -22 53 -44 56 -48 5 -6 25
7 94 61 78 60 346 205 430 232 22 7 46 17 53 23 6 5 12 6 12 2 0 -4 6 -3 13 2
11 9 155 51 201 58 12 2 39 7 61 10 97 16 170 14 222 -5 129 -48 445 -212 473
-245 7 -8 16 -15 21 -15 4 0 29 -15 55 -32 25 -18 53 -37 62 -43 9 -5 21 -14
26 -18 43 -32 241 -174 254 -182 9 -5 24 -17 32 -25 8 -8 23 -19 32 -25 9 -5
58 -39 108 -74 l92 -63 52 23 c68 32 129 69 266 163 125 85 406 270 455 299
30 18 161 82 225 110 174 77 406 106 560 71 66 -15 208 -58 245 -73 11 -5 36
-15 55 -22 58 -20 240 -113 320 -162 l74 -45 61 51 c220 188 389 367 570 603
l55 72 -153 37 c-165 39 -196 47 -213 51 -7 1 -45 10 -85 19 -41 10 -85 19
-99 21 -14 3 -34 6 -45 8 -11 2 -33 6 -50 9 -45 9 -100 17 -225 33 -51 6 -297
13 -303 8z"/>
<path d="M2217 883 c-1 -1 -25 -5 -52 -8 -100 -13 -341 -81 -445 -127 -25 -11
-37 -16 -98 -39 l-34 -12 84 -54 c45 -29 94 -59 108 -67 14 -7 43 -23 65 -36
61 -35 262 -134 335 -165 36 -15 74 -31 85 -36 87 -38 255 -94 405 -135 68
-18 181 -45 209 -50 18 -3 43 -8 55 -10 11 -2 37 -7 56 -10 19 -3 46 -7 60
-10 14 -2 45 -6 70 -9 25 -3 54 -8 65 -10 97 -19 582 -28 730 -13 200 21 262
30 385 55 41 8 86 17 100 20 40 8 55 11 55 13 0 1 13 3 29 5 16 2 36 7 45 11
19 9 17 8 61 18 19 5 40 11 45 14 6 4 19 8 30 10 27 4 138 42 254 86 123 48
141 56 301 135 115 56 177 91 372 209 34 21 34 23 6 41 -130 81 -356 169 -428
165 -34 -1 -145 -20 -145 -24 0 -2 -13 -5 -51 -14 -81 -18 -313 -98 -409 -141
-16 -7 -52 -23 -80 -35 -70 -31 -335 -164 -490 -246 -71 -38 -152 -81 -180
-94 -27 -14 -51 -28 -53 -32 -2 -5 -8 -8 -13 -8 -9 0 -106 -42 -166 -72 -29
-14 -53 -3 -113 50 -25 22 -83 72 -130 112 -47 39 -94 79 -105 89 -98 86 -311
229 -432 290 -78 39 -283 115 -283 105 0 -2 -8 -1 -17 5 -27 14 -109 24 -201
25 -46 1 -84 1 -85 -1z"/>
</g>
</svg>
